<svg width="119" height="119" viewBox="0 0 119 119" fill="none" xmlns="http://www.w3.org/2000/svg">
<path fill-rule="evenodd" clip-rule="evenodd" d="M1.86426 4V117.148H114.243V117.148C114.243 115.504 114.915 114.017 116 112.947L76.2291 74.9846C75.1517 76.1423 73.6146 76.8664 71.9084 76.8664C68.6492 76.8664 66.0072 74.2244 66.0072 70.9653C66.0072 69.3577 66.65 67.9003 67.6925 66.8361L38.3645 38.8412C37.4029 39.521 36.229 39.9204 34.9619 39.9204C31.7027 39.9204 29.0607 37.2783 29.0607 34.0192C29.0607 32.8504 29.4005 31.7609 29.9868 30.8442L13.5447 15.1495C12.7355 15.5668 11.8174 15.8023 10.8442 15.8023C7.58513 15.8023 4.94309 13.1603 4.94309 9.90116C4.94309 9.02563 5.13376 8.19463 5.47584 7.44742L1.86426 4ZM13.4097 45.5647C16.6688 45.5647 19.3108 42.9227 19.3108 39.6636C19.3108 36.4045 16.6688 33.7624 13.4097 33.7624C10.1506 33.7624 7.50852 36.4045 7.50852 39.6636C7.50852 42.9227 10.1506 45.5647 13.4097 45.5647ZM34.7056 55.0579C34.7056 58.317 32.0635 60.959 28.8044 60.959C25.5453 60.959 22.9033 58.317 22.9033 55.0579C22.9033 51.7988 25.5453 49.1567 28.8044 49.1567C32.0635 49.1567 34.7056 51.7988 34.7056 55.0579ZM13.4097 82.5112C16.6688 82.5112 19.3108 79.8692 19.3108 76.6101C19.3108 73.351 16.6688 70.7089 13.4097 70.7089C10.1506 70.7089 7.50852 73.351 7.50852 76.6101C7.50852 79.8692 10.1506 82.5112 13.4097 82.5112ZM48.5602 76.6101C48.5602 79.8692 45.9181 82.5112 42.659 82.5112C39.3999 82.5112 36.7579 79.8692 36.7579 76.6101C36.7579 73.351 39.3999 70.7089 42.659 70.7089C45.9181 70.7089 48.5602 73.351 48.5602 76.6101ZM67.2902 99.4448C70.5493 99.4448 73.1913 96.8027 73.1913 93.5436C73.1913 90.2845 70.5493 87.6425 67.2902 87.6425C64.031 87.6425 61.389 90.2845 61.389 93.5436C61.389 96.8027 64.031 99.4448 67.2902 99.4448ZM31.1131 99.7011C31.1131 102.96 28.4711 105.602 25.2119 105.602C21.9528 105.602 19.3108 102.96 19.3108 99.7011C19.3108 96.442 21.9528 93.7999 25.2119 93.7999C28.4711 93.7999 31.1131 96.442 31.1131 99.7011ZM90.8947 111.247C94.1538 111.247 96.7958 108.605 96.7958 105.346C96.7958 102.087 94.1538 99.4452 90.8947 99.4452C87.6356 99.4452 84.9935 102.087 84.9935 105.346C84.9935 108.605 87.6356 111.247 90.8947 111.247Z" fill="#FCE154"/>
<path d="M1.86426 117.148H0.364258V118.648H1.86426V117.148ZM1.86426 4L2.89997 2.91497L0.364258 0.494513V4H1.86426ZM114.243 117.148V118.648H115.743V117.148H114.243ZM116 112.947L117.053 114.015L118.153 112.93L117.035 111.862L116 112.947ZM76.2291 74.9846L77.2648 73.8996L76.166 72.8507L75.1311 73.9627L76.2291 74.9846ZM67.6925 66.8361L68.7641 67.8857L69.8274 66.8002L68.7282 65.751L67.6925 66.8361ZM38.3645 38.8412L39.4002 37.7561L38.507 36.9035L37.4986 37.6163L38.3645 38.8412ZM29.9868 30.8442L31.2505 31.6523L31.9158 30.6119L31.0225 29.7592L29.9868 30.8442ZM13.5447 15.1495L14.5805 14.0645L13.8073 13.3265L12.8574 13.8163L13.5447 15.1495ZM5.47584 7.44742L6.83971 8.07182L7.28452 7.10022L6.51156 6.36239L5.47584 7.44742ZM3.36426 117.148V4H0.364258V117.148H3.36426ZM114.243 115.648H1.86426V118.648H114.243V115.648ZM112.743 117.148V117.148H115.743V117.148H112.743ZM114.946 111.88C113.588 113.22 112.743 115.087 112.743 117.148H115.743C115.743 115.922 116.243 114.815 117.053 114.015L114.946 111.88ZM75.1934 76.0696L114.964 114.032L117.035 111.862L77.2648 73.8996L75.1934 76.0696ZM71.9084 78.3664C74.0482 78.3664 75.9778 77.4563 77.3271 76.0065L75.1311 73.9627C74.3255 74.8283 73.1809 75.3664 71.9084 75.3664V78.3664ZM64.5072 70.9653C64.5072 75.0528 67.8208 78.3664 71.9084 78.3664V75.3664C69.4777 75.3664 67.5072 73.396 67.5072 70.9653H64.5072ZM66.621 65.7864C65.3149 67.1197 64.5072 68.9496 64.5072 70.9653H67.5072C67.5072 69.7658 67.985 68.681 68.7641 67.8857L66.621 65.7864ZM37.3288 39.9262L66.6568 67.9211L68.7282 65.751L39.4002 37.7561L37.3288 39.9262ZM34.9619 41.4204C36.5492 41.4204 38.0239 40.919 39.2304 40.066L37.4986 37.6163C36.782 38.123 35.9089 38.4204 34.9619 38.4204V41.4204ZM27.5607 34.0192C27.5607 38.1068 30.8743 41.4204 34.9619 41.4204V38.4204C32.5312 38.4204 30.5607 36.4499 30.5607 34.0192H27.5607ZM28.7231 30.0361C27.9871 31.1869 27.5607 32.5555 27.5607 34.0192H30.5607C30.5607 33.1452 30.8139 32.335 31.2505 31.6523L28.7231 30.0361ZM12.509 16.2346L28.951 31.9292L31.0225 29.7592L14.5805 14.0645L12.509 16.2346ZM12.8574 13.8163C12.2557 14.1265 11.5727 14.3023 10.8442 14.3023V17.3023C12.0621 17.3023 13.2153 17.007 14.2321 16.4828L12.8574 13.8163ZM10.8442 14.3023C8.41356 14.3023 6.44309 12.3318 6.44309 9.90116H3.44309C3.44309 13.9887 6.7567 17.3023 10.8442 17.3023V14.3023ZM6.44309 9.90116C6.44309 9.24542 6.58552 8.62703 6.83971 8.07182L4.11198 6.82303C3.682 7.76222 3.44309 8.80583 3.44309 9.90116H6.44309ZM0.828544 5.08503L4.44013 8.53246L6.51156 6.36239L2.89997 2.91497L0.828544 5.08503ZM17.8108 39.6636C17.8108 42.0943 15.8404 44.0647 13.4097 44.0647V47.0647C17.4972 47.0647 20.8108 43.7511 20.8108 39.6636H17.8108ZM13.4097 35.2624C15.8404 35.2624 17.8108 37.2329 17.8108 39.6636H20.8108C20.8108 35.576 17.4972 32.2624 13.4097 32.2624V35.2624ZM9.00852 39.6636C9.00852 37.2329 10.979 35.2624 13.4097 35.2624V32.2624C9.32213 32.2624 6.00852 35.576 6.00852 39.6636H9.00852ZM13.4097 44.0647C10.979 44.0647 9.00852 42.0943 9.00852 39.6636H6.00852C6.00852 43.7511 9.32213 47.0647 13.4097 47.0647V44.0647ZM28.8044 62.459C32.892 62.459 36.2056 59.1454 36.2056 55.0579H33.2056C33.2056 57.4886 31.2351 59.459 28.8044 59.459V62.459ZM21.4033 55.0579C21.4033 59.1454 24.7169 62.459 28.8044 62.459V59.459C26.3737 59.459 24.4033 57.4886 24.4033 55.0579H21.4033ZM28.8044 47.6567C24.7169 47.6567 21.4033 50.9703 21.4033 55.0579H24.4033C24.4033 52.6272 26.3737 50.6567 28.8044 50.6567V47.6567ZM36.2056 55.0579C36.2056 50.9703 32.892 47.6567 28.8044 47.6567V50.6567C31.2351 50.6567 33.2056 52.6272 33.2056 55.0579H36.2056ZM17.8108 76.6101C17.8108 79.0408 15.8404 81.0112 13.4097 81.0112V84.0112C17.4972 84.0112 20.8108 80.6976 20.8108 76.6101H17.8108ZM13.4097 72.2089C15.8404 72.2089 17.8108 74.1794 17.8108 76.6101H20.8108C20.8108 72.5225 17.4972 69.2089 13.4097 69.2089V72.2089ZM9.00852 76.6101C9.00852 74.1794 10.979 72.2089 13.4097 72.2089V69.2089C9.32213 69.2089 6.00852 72.5225 6.00852 76.6101H9.00852ZM13.4097 81.0112C10.979 81.0112 9.00852 79.0408 9.00852 76.6101H6.00852C6.00852 80.6976 9.32213 84.0112 13.4097 84.0112V81.0112ZM42.659 84.0112C46.7466 84.0112 50.0602 80.6976 50.0602 76.6101H47.0602C47.0602 79.0408 45.0897 81.0112 42.659 81.0112V84.0112ZM35.2579 76.6101C35.2579 80.6976 38.5715 84.0112 42.659 84.0112V81.0112C40.2283 81.0112 38.2579 79.0408 38.2579 76.6101H35.2579ZM42.659 69.2089C38.5715 69.2089 35.2579 72.5225 35.2579 76.6101H38.2579C38.2579 74.1794 40.2283 72.2089 42.659 72.2089V69.2089ZM50.0602 76.6101C50.0602 72.5225 46.7466 69.2089 42.659 69.2089V72.2089C45.0897 72.2089 47.0602 74.1794 47.0602 76.6101H50.0602ZM71.6913 93.5436C71.6913 95.9743 69.7208 97.9448 67.2902 97.9448V100.945C71.3777 100.945 74.6913 97.6312 74.6913 93.5436H71.6913ZM67.2902 89.1425C69.7209 89.1425 71.6913 91.1129 71.6913 93.5436H74.6913C74.6913 89.4561 71.3777 86.1425 67.2902 86.1425V89.1425ZM62.889 93.5436C62.889 91.1129 64.8595 89.1425 67.2902 89.1425V86.1425C63.2026 86.1425 59.889 89.4561 59.889 93.5436H62.889ZM67.2902 97.9448C64.8595 97.9448 62.889 95.9743 62.889 93.5436H59.889C59.889 97.6312 63.2026 100.945 67.2902 100.945V97.9448ZM25.2119 107.102C29.2995 107.102 32.6131 103.789 32.6131 99.7011H29.6131C29.6131 102.132 27.6426 104.102 25.2119 104.102V107.102ZM17.8108 99.7011C17.8108 103.789 21.1244 107.102 25.2119 107.102V104.102C22.7812 104.102 20.8108 102.132 20.8108 99.7011H17.8108ZM25.2119 92.2999C21.1244 92.2999 17.8108 95.6135 17.8108 99.7011H20.8108C20.8108 97.2704 22.7812 95.2999 25.2119 95.2999V92.2999ZM32.6131 99.7011C32.6131 95.6135 29.2995 92.2999 25.2119 92.2999V95.2999C27.6426 95.2999 29.6131 97.2704 29.6131 99.7011H32.6131ZM95.2958 105.346C95.2958 107.777 93.3254 109.747 90.8947 109.747V112.747C94.9822 112.747 98.2958 109.434 98.2958 105.346H95.2958ZM90.8947 100.945C93.3254 100.945 95.2958 102.916 95.2958 105.346H98.2958C98.2958 101.259 94.9822 97.9452 90.8947 97.9452V100.945ZM86.4935 105.346C86.4935 102.916 88.464 100.945 90.8947 100.945V97.9452C86.8071 97.9452 83.4935 101.259 83.4935 105.346H86.4935ZM90.8947 109.747C88.464 109.747 86.4935 107.777 86.4935 105.346H83.4935C83.4935 109.434 86.8071 112.747 90.8947 112.747V109.747Z" fill="black"/>
</svg>
