<svg width="88" height="594" viewBox="0 0 88 594" fill="none" xmlns="http://www.w3.org/2000/svg">
<path d="M40.7963 591.457C41.4558 591.928 42.3037 592.116 43.095 591.928C50.4059 590.272 85.4525 577.83 62.9737 493.167C37.9511 398.981 53.0815 235.584 56.0962 214.428C58.5646 197.187 76.9358 192.086 83.6248 190.787C85.038 190.524 86.0366 189.282 85.999 187.851L82.2682 4.87981C82.2305 3.27991 80.9304 2 79.3288 2C77.7272 2 76.4082 3.2799 76.3894 4.89862L74.524 142.433C74.5051 143.562 73.8457 144.598 72.8094 145.049C68.796 146.875 58.9603 150.677 58.4515 144.56C57.8674 137.502 57.8109 23.2127 57.8109 4.55983C57.8109 3.12934 56.6615 2 55.2295 2C53.8163 2 52.6669 3.12935 52.6481 4.54102L50.7827 142.998C50.7639 144.334 49.8594 145.482 48.5593 145.802C44.4328 146.819 35.8408 148.456 35.3509 144.579C34.7667 139.892 35.2567 24.9256 35.332 4.95511C35.332 3.3364 34.0319 2.01881 32.3926 2.01881H30.5838C28.9633 2.01881 27.6444 3.3364 27.6444 4.95511V142.772C27.6444 143.901 27.0037 144.936 25.9674 145.426C21.709 147.421 10.724 151.807 9.68766 144.598C8.51944 136.429 9.48038 24.6808 9.6688 4.99274C9.68764 3.3552 8.36869 2.03765 6.72941 2.03765H4.93939C3.31896 2.03765 2 3.35521 2 4.97392V185.762C2 187.192 3.03631 188.341 4.43064 188.642C7.29467 189.263 12.8908 192.406 22.5193 204.829C37.9134 224.686 31.507 443.194 23.8005 495.087C16.2448 546.34 14.2663 572.597 40.7963 591.457Z" fill="white" stroke="black" stroke-width="3" stroke-miterlimit="10"/>
</svg>
