<svg width="79" height="579" viewBox="0 0 79 579" fill="none" xmlns="http://www.w3.org/2000/svg">
<path d="M39.5592 289.893C39.5592 289.893 30.3125 527.98 27.8419 547.038C26.0434 560.857 39.541 570.81 47.08 575.218C50.5498 577.241 54.7644 577.566 58.4704 576.067C65.9004 573.05 77 564.849 77 542.738C77 509.536 64.4834 29.8752 64.4834 29.8752C64.4834 29.8752 55.6727 -32.844 36.1984 29.8752C16.7241 92.5944 -32.7611 270.076 41.7573 293.686" fill="white"/>
<path d="M39.5592 289.893C39.5592 289.893 30.3125 527.98 27.8419 547.038C26.0434 560.857 39.541 570.81 47.08 575.218C50.5498 577.241 54.7644 577.566 58.4704 576.067C65.9004 573.05 77 564.849 77 542.738C77 509.536 64.4834 29.8752 64.4834 29.8752C64.4834 29.8752 55.6727 -32.844 36.1984 29.8752C16.7241 92.5944 -32.7611 270.076 41.7573 293.686" stroke="black" stroke-width="3" stroke-miterlimit="10"/>
</svg>
