<svg width="146" height="165" viewBox="0 0 146 165" fill="none" xmlns="http://www.w3.org/2000/svg">
<path d="M41.8757 154.793C23.6538 144.752 34.2832 95.7578 41.8757 72.5156H106.024C116.716 72.5156 131.126 145.496 124.153 154.793C117.18 164.09 64.653 167.344 41.8757 154.793Z" fill="#F5E6D1" stroke="black" stroke-width="2"/>
<path d="M145 46.0195C145 58.2626 137.128 69.4937 124.091 77.7144C111.067 85.9268 93.0134 91.0391 73.0195 91.0391C53.0256 91.0391 34.9717 85.9268 21.9479 77.7144C8.91116 69.4937 1.03906 58.2626 1.03906 46.0195C1.03906 33.7765 8.91116 22.5453 21.9479 14.3247C34.9717 6.11222 53.0256 1 73.0195 1C93.0134 1 111.067 6.11222 124.091 14.3247C137.128 22.5453 145 33.7765 145 46.0195Z" fill="#F5E6D1" stroke="black" stroke-width="2"/>
</svg>
