<svg width="115" height="115" viewBox="0 0 115 115" fill="none" xmlns="http://www.w3.org/2000/svg">
<mask id="path-1-inside-1_217_9" fill="white">
<path fill-rule="evenodd" clip-rule="evenodd" d="M57.5 115C89.2564 115 115 89.2564 115 57.5C115 25.7436 89.2564 0 57.5 0C25.7436 0 0 25.7436 0 57.5C0 89.2564 25.7436 115 57.5 115ZM56.5 91C75.5538 91 91 75.5538 91 56.5C91 37.4462 75.5538 22 56.5 22C37.4462 22 22 37.4462 22 56.5C22 75.5538 37.4462 91 56.5 91Z"/>
</mask>
<path fill-rule="evenodd" clip-rule="evenodd" d="M57.5 115C89.2564 115 115 89.2564 115 57.5C115 25.7436 89.2564 0 57.5 0C25.7436 0 0 25.7436 0 57.5C0 89.2564 25.7436 115 57.5 115ZM56.5 91C75.5538 91 91 75.5538 91 56.5C91 37.4462 75.5538 22 56.5 22C37.4462 22 22 37.4462 22 56.5C22 75.5538 37.4462 91 56.5 91Z" fill="#545C2B"/>
<path d="M113 57.5C113 88.1518 88.1518 113 57.5 113V117C90.3609 117 117 90.3609 117 57.5H113ZM57.5 2C88.1518 2 113 26.8482 113 57.5H117C117 24.6391 90.3609 -2 57.5 -2V2ZM2 57.5C2 26.8482 26.8482 2 57.5 2V-2C24.6391 -2 -2 24.6391 -2 57.5H2ZM57.5 113C26.8482 113 2 88.1518 2 57.5H-2C-2 90.3609 24.6391 117 57.5 117V113ZM89 56.5C89 74.4493 74.4493 89 56.5 89V93C76.6584 93 93 76.6584 93 56.5H89ZM56.5 24C74.4493 24 89 38.5507 89 56.5H93C93 36.3416 76.6584 20 56.5 20V24ZM24 56.5C24 38.5507 38.5507 24 56.5 24V20C36.3416 20 20 36.3416 20 56.5H24ZM56.5 89C38.5507 89 24 74.4493 24 56.5H20C20 76.6584 36.3416 93 56.5 93V89Z" fill="black" mask="url(#path-1-inside-1_217_9)"/>
</svg>
