<svg width="101" height="101" viewBox="0 0 101 101" fill="none" xmlns="http://www.w3.org/2000/svg">
<circle cx="50.5" cy="50.5" r="49.5" fill="#FFD5EA" stroke="#9A3159" stroke-width="2"/>
<path d="M86 50.5C86 70.0933 69.8951 86 50 86C30.1049 86 14 70.0933 14 50.5C14 30.9067 30.1049 15 50 15C69.8951 15 86 30.9067 86 50.5Z" fill="#FFD5EA" stroke="#9A3159" stroke-width="2"/>
<path d="M72 50.5C72 62.3535 62.1711 72 50 72C37.8289 72 28 62.3535 28 50.5C28 38.6465 37.8289 29 50 29C62.1711 29 72 38.6465 72 50.5Z" fill="#FFD5EA" stroke="#9A3159" stroke-width="2"/>
<path d="M61 50.5C61 56.3413 56.4814 61 51 61C45.5186 61 41 56.3413 41 50.5C41 44.6587 45.5186 40 51 40C56.4814 40 61 44.6587 61 50.5Z" fill="#FFD5EA" stroke="#9A3159" stroke-width="2"/>
</svg>
