<svg width="310" height="389" viewBox="0 0 310 389" fill="none" xmlns="http://www.w3.org/2000/svg">
<path d="M18.5627 28.1967C29.2899 11.6532 61.4998 3.49933 81.6939 25.0462C139.897 87.1482 74.4998 203.697 33.4998 174C20.0124 164.231 17.2391 112.5 39.9998 106.522C101 90.5 80.9315 167.71 80.9315 204.197C80.9315 240.683 125.5 427 18.9717 375.978C-14.8544 359.777 -3.50009 243.5 88.3119 258.813C185.84 275.08 172.084 192.746 142 187C97.4998 178.5 68.6597 249.069 164.946 285.328C261.233 321.588 385.733 106.522 246 106.522C180.348 106.522 175.073 205.783 241.152 268.558C294.015 318.778 294.101 344.477 290.84 388.443" stroke="#C6181F" stroke-width="2.11"/>
<circle cx="17.5059" cy="16.5059" r="16.4625" fill="#E4AA11" stroke="black" stroke-width="0.0867588"/>
<circle cx="17.5069" cy="16.5059" r="14.0338" fill="#F6D35F" stroke="black" stroke-width="0.0867588"/>
<path d="M22.7248 8.12693C22.7248 8.96639 21.6874 9.52049 21.1687 9.6926L20.043 10.0007C20.4182 10.0146 21.3547 10.1355 22.0378 10.0007C22.8821 9.83418 23.594 8.82648 23.8588 7.73551C24.1237 6.64454 23.7678 5.98662 23.1221 5.90334C22.4765 5.82006 22.7248 7.07759 22.7248 8.12693Z" fill="#C6181F" stroke="black" stroke-width="0.0867588"/>
<path d="M10.6081 11.5735C10.6081 12.4042 9.55919 12.9525 9.03471 13.1228L7.89648 13.4277C8.27589 13.4415 9.22282 13.5611 9.91349 13.4277C10.7672 13.2629 11.4869 12.2657 11.7547 11.1861C12.0226 10.1065 11.6627 9.45544 11.0099 9.37303C10.3571 9.29061 10.6081 10.535 10.6081 11.5735Z" fill="#C6181F" stroke="black" stroke-width="0.0867588"/>
<path d="M25.676 17.0195C25.676 17.859 24.6386 18.4131 24.1199 18.5852L22.9941 18.8933C23.3694 18.9072 24.3059 19.0281 24.989 18.8933C25.8333 18.7268 26.5451 17.7191 26.81 16.6281C27.0749 15.5371 26.719 14.8792 26.0733 14.7959C25.4277 14.7126 25.676 15.9702 25.676 17.0195Z" fill="#C6181F" stroke="black" stroke-width="0.0867588"/>
<path d="M10.6081 22.7026C10.6081 23.5421 9.55919 24.0962 9.03471 24.2683L7.89648 24.5764C8.27589 24.5903 9.22282 24.7112 9.91349 24.5764C10.7672 24.4099 11.4869 23.4022 11.7547 22.3112C12.0226 21.2202 11.6627 20.5623 11.0099 20.479C10.3571 20.3957 10.6081 21.6533 10.6081 22.7026Z" fill="#C6181F" stroke="black" stroke-width="0.0867588"/>
<path d="M21.9885 24.5239C21.9885 25.3634 20.9511 25.9175 20.4324 26.0896L19.3066 26.3977C19.6819 26.4116 20.6184 26.5325 21.3015 26.3977C22.1458 26.2312 22.8576 25.2235 23.1225 24.1325C23.3874 23.0415 23.0315 22.3836 22.3858 22.3003C21.7402 22.217 21.9885 23.4746 21.9885 24.5239Z" fill="#C6181F" stroke="black" stroke-width="0.0867588"/>
<path d="M23.1326 6.03057C23.1788 5.85261 23.2157 5.47332 22.9941 5.37988" stroke="black" stroke-width="0.130138"/>
<path d="M11.0208 9.49981C11.0785 9.32185 11.1247 8.94255 10.8477 8.84912" stroke="black" stroke-width="0.130138"/>
<path d="M26.0819 14.9223C26.128 14.7562 26.165 14.4021 25.9434 14.3149" stroke="black" stroke-width="0.130138"/>
<path d="M11.0208 20.6048C11.0785 20.4268 11.1247 20.0475 10.8477 19.9541" stroke="black" stroke-width="0.130138"/>
<path d="M22.3944 22.4705C22.4405 22.2925 22.4775 21.9133 22.2559 21.8198" stroke="black" stroke-width="0.130138"/>
<ellipse cx="23.1451" cy="6.02914" rx="0.0650691" ry="0.0867588" fill="black"/>
<ellipse cx="11.0416" cy="9.50033" rx="0.0650691" ry="0.0867588" fill="black"/>
<ellipse cx="26.0944" cy="14.9449" rx="0.0650691" ry="0.108448" fill="black"/>
<ellipse cx="11.0416" cy="20.6048" rx="0.0650691" ry="0.0867588" fill="black"/>
<ellipse cx="22.4069" cy="22.4705" rx="0.0650691" ry="0.0867588" fill="black"/>
<circle cx="14.9324" cy="5.63696" r="1.53353" fill="#545C2B" stroke="black" stroke-width="0.0867588"/>
<circle cx="14.9051" cy="5.60923" r="0.902763" fill="#F6D35F" stroke="black" stroke-width="0.0867588"/>
<circle cx="8.3855" cy="17.3005" r="1.53353" fill="#545C2B" stroke="black" stroke-width="0.0867588"/>
<circle cx="8.35825" cy="17.2728" r="0.902763" fill="#F6D35F" stroke="black" stroke-width="0.0867588"/>
<circle cx="24.9851" cy="11.6296" r="1.53353" fill="#545C2B" stroke="black" stroke-width="0.0867588"/>
<circle cx="24.9579" cy="11.6019" r="0.902763" fill="#F6D35F" stroke="black" stroke-width="0.0867588"/>
<circle cx="26.8738" cy="21.5422" r="1.53353" fill="#545C2B" stroke="black" stroke-width="0.0867588"/>
<circle cx="26.8465" cy="21.5145" r="0.902763" fill="#F6D35F" stroke="black" stroke-width="0.0867588"/>
<circle cx="16.5007" cy="24.446" r="1.53353" fill="#545C2B" stroke="black" stroke-width="0.0867588"/>
<circle cx="16.4735" cy="24.4183" r="0.902763" fill="#F6D35F" stroke="black" stroke-width="0.0867588"/>
<path d="M17.2711 10.763C16.8509 10.5314 17.096 9.40167 17.2711 8.86572H18.7503C18.9968 8.86572 19.3291 10.5486 19.1683 10.763C19.0075 10.9773 17.7963 11.0524 17.2711 10.763Z" fill="#F5E6D1" stroke="black" stroke-width="0.0867588"/>
<path d="M19.629 8.25453C19.629 8.52739 19.4535 8.78081 19.1563 8.96819C18.8597 9.15522 18.4473 9.27231 17.9895 9.27231C17.5317 9.27231 17.1193 9.15522 16.8227 8.96819C16.5255 8.78081 16.35 8.52739 16.35 8.25453C16.35 7.98166 16.5255 7.72824 16.8227 7.54086C17.1193 7.35384 17.5317 7.23674 17.9895 7.23674C18.4473 7.23674 18.8597 7.35384 19.1563 7.54086C19.4535 7.72824 19.629 7.98166 19.629 8.25453Z" fill="#F5E6D1" stroke="black" stroke-width="0.0867588"/>
<path d="M21.7437 17.4046C21.3235 17.173 21.5686 16.0433 21.7437 15.5073H23.2229C23.4695 15.5073 23.8017 17.1902 23.641 17.4046C23.4802 17.6189 22.2689 17.694 21.7437 17.4046Z" fill="#F5E6D1" stroke="black" stroke-width="0.0867588"/>
<path d="M24.1016 14.8961C24.1016 15.169 23.9261 15.4224 23.629 15.6098C23.3324 15.7968 22.92 15.9139 22.4622 15.9139C22.0043 15.9139 21.5919 15.7968 21.2953 15.6098C20.9982 15.4224 20.8227 15.169 20.8227 14.8961C20.8227 14.6233 20.9982 14.3698 21.2953 14.1825C21.5919 13.9954 22.0043 13.8783 22.4622 13.8783C22.92 13.8783 23.3324 13.9954 23.629 14.1825C23.9261 14.3698 24.1016 14.6233 24.1016 14.8961Z" fill="#F5E6D1" stroke="black" stroke-width="0.0867588"/>
<path d="M18.0093 22.6604C17.5892 22.4289 17.8343 21.2991 18.0093 20.7632H19.4885C19.7351 20.7632 20.0674 22.446 19.9066 22.6604C19.7458 22.8748 18.5346 22.9498 18.0093 22.6604Z" fill="#F5E6D1" stroke="black" stroke-width="0.0867588"/>
<path d="M20.3673 20.152C20.3673 20.4249 20.1918 20.6783 19.8946 20.8657C19.598 21.0527 19.1856 21.1698 18.7278 21.1698C18.27 21.1698 17.8576 21.0527 17.561 20.8657C17.2638 20.6783 17.0883 20.4249 17.0883 20.152C17.0883 19.8791 17.2638 19.6257 17.561 19.4383C17.8576 19.2513 18.27 19.1342 18.7278 19.1342C19.1856 19.1342 19.598 19.2513 19.8946 19.4383C20.1918 19.6257 20.3673 19.8791 20.3673 20.152Z" fill="#F5E6D1" stroke="black" stroke-width="0.0867588"/>
<path d="M12.0621 18.1868C11.6419 17.9553 11.887 16.8255 12.0621 16.2896H13.5413C13.7878 16.2896 14.1201 17.9724 13.9593 18.1868C13.7985 18.4012 12.5873 18.4762 12.0621 18.1868Z" fill="#F5E6D1" stroke="black" stroke-width="0.0867588"/>
<path d="M14.42 15.6784C14.42 15.9512 14.2445 16.2046 13.9473 16.392C13.6507 16.579 13.2383 16.6961 12.7805 16.6961C12.3227 16.6961 11.9103 16.579 11.6137 16.392C11.3165 16.2046 11.141 15.9512 11.141 15.6784C11.141 15.4055 11.3165 15.1521 11.6137 14.9647C11.9103 14.7777 12.3227 14.6606 12.7805 14.6606C13.2383 14.6606 13.6507 14.7777 13.9473 14.9647C14.2445 15.1521 14.42 15.4055 14.42 15.6784Z" fill="#F5E6D1" stroke="black" stroke-width="0.0867588"/>
<circle cx="19.2125" cy="4.88979" r="1.61643" fill="#FFD5EA" stroke="#9A3159" stroke-width="0.0867588"/>
<path d="M20.3693 4.88912C20.3693 5.52716 19.8448 6.0454 19.1966 6.0454C18.5483 6.0454 18.0238 5.52716 18.0238 4.88912C18.0238 4.25107 18.5483 3.73283 19.1966 3.73283C19.8448 3.73283 20.3693 4.25107 20.3693 4.88912Z" fill="#FFD5EA" stroke="#9A3159" stroke-width="0.0867588"/>
<path d="M19.908 4.88942C19.908 5.27299 19.5899 5.58556 19.1954 5.58556C18.801 5.58556 18.4828 5.27299 18.4828 4.88942C18.4828 4.50585 18.801 4.19328 19.1954 4.19328C19.5899 4.19328 19.908 4.50585 19.908 4.88942Z" fill="#FFD5EA" stroke="#9A3159" stroke-width="0.0867588"/>
<path d="M19.5469 4.88921C19.5469 5.07584 19.4026 5.2238 19.2287 5.2238C19.0548 5.2238 18.9106 5.07584 18.9106 4.88921C18.9106 4.70258 19.0548 4.55461 19.2287 4.55461C19.4026 4.55461 19.5469 4.70258 19.5469 4.88921Z" fill="#FFD5EA" stroke="#9A3159" stroke-width="0.0867588"/>
<circle cx="29.4469" cy="15.4948" r="1.61643" fill="#FFD5EA" stroke="#9A3159" stroke-width="0.0867588"/>
<path d="M30.6037 15.4956C30.6037 16.1336 30.0792 16.6518 29.4309 16.6518C28.7827 16.6518 28.2582 16.1336 28.2582 15.4956C28.2582 14.8575 28.7827 14.3393 29.4309 14.3393C30.0792 14.3393 30.6037 14.8575 30.6037 15.4956Z" fill="#FFD5EA" stroke="#9A3159" stroke-width="0.0867588"/>
<path d="M30.1424 15.4944C30.1424 15.878 29.8242 16.1905 29.4298 16.1905C29.0353 16.1905 28.7172 15.878 28.7172 15.4944C28.7172 15.1108 29.0353 14.7983 29.4298 14.7983C29.8242 14.7983 30.1424 15.1108 30.1424 15.4944Z" fill="#FFD5EA" stroke="#9A3159" stroke-width="0.0867588"/>
<path d="M29.7813 15.4957C29.7813 15.6823 29.637 15.8302 29.4631 15.8302C29.2892 15.8302 29.1449 15.6823 29.1449 15.4957C29.1449 15.309 29.2892 15.1611 29.4631 15.1611C29.637 15.1611 29.7813 15.309 29.7813 15.4957Z" fill="#FFD5EA" stroke="#9A3159" stroke-width="0.0867588"/>
<circle cx="7.91567" cy="9.82387" r="1.61643" fill="#FFD5EA" stroke="#9A3159" stroke-width="0.0867588"/>
<path d="M9.07241 9.82466C9.07241 10.4627 8.54792 10.9809 7.89969 10.9809C7.25146 10.9809 6.72697 10.4627 6.72697 9.82466C6.72697 9.18662 7.25146 8.66838 7.89969 8.66838C8.54792 8.66838 9.07241 9.18662 9.07241 9.82466Z" fill="#FFD5EA" stroke="#9A3159" stroke-width="0.0867588"/>
<path d="M8.6111 9.82399C8.6111 10.2076 8.29298 10.5201 7.89853 10.5201C7.50408 10.5201 7.18596 10.2076 7.18596 9.82399C7.18596 9.44042 7.50408 9.12785 7.89853 9.12785C8.29298 9.12785 8.6111 9.44042 8.6111 9.82399Z" fill="#FFD5EA" stroke="#9A3159" stroke-width="0.0867588"/>
<path d="M8.25002 9.82524C8.25002 10.0119 8.10577 10.1598 7.93185 10.1598C7.75794 10.1598 7.61369 10.0119 7.61369 9.82524C7.61369 9.63861 7.75794 9.49065 7.93185 9.49065C8.10577 9.49065 8.25002 9.63861 8.25002 9.82524Z" fill="#FFD5EA" stroke="#9A3159" stroke-width="0.0867588"/>
<circle cx="12.6188" cy="25.8224" r="1.61643" fill="#FFD5EA" stroke="#9A3159" stroke-width="0.0867588"/>
<path d="M13.7755 25.8232C13.7755 26.4612 13.251 26.9795 12.6028 26.9795C11.9546 26.9795 11.4301 26.4612 11.4301 25.8232C11.4301 25.1852 11.9546 24.6669 12.6028 24.6669C13.251 24.6669 13.7755 25.1852 13.7755 25.8232Z" fill="#FFD5EA" stroke="#9A3159" stroke-width="0.0867588"/>
<path d="M13.3142 25.822C13.3142 26.2056 12.9961 26.5182 12.6017 26.5182C12.2072 26.5182 11.8891 26.2056 11.8891 25.822C11.8891 25.4385 12.2072 25.1259 12.6017 25.1259C12.9961 25.1259 13.3142 25.4385 13.3142 25.822Z" fill="#FFD5EA" stroke="#9A3159" stroke-width="0.0867588"/>
<path d="M12.9531 25.8233C12.9531 26.0099 12.8089 26.1579 12.635 26.1579C12.4611 26.1579 12.3168 26.0099 12.3168 25.8233C12.3168 25.6367 12.4611 25.4887 12.635 25.4887C12.8089 25.4887 12.9531 25.6367 12.9531 25.8233Z" fill="#FFD5EA" stroke="#9A3159" stroke-width="0.0867588"/>
<circle cx="24.8375" cy="24.5289" r="1.61643" fill="#FFD5EA" stroke="#9A3159" stroke-width="0.0867588"/>
<path d="M25.9943 24.5297C25.9943 25.1678 25.4698 25.686 24.8216 25.686C24.1733 25.686 23.6488 25.1678 23.6488 24.5297C23.6488 23.8917 24.1733 23.3735 24.8216 23.3735C25.4698 23.3735 25.9943 23.8917 25.9943 24.5297Z" fill="#FFD5EA" stroke="#9A3159" stroke-width="0.0867588"/>
<path d="M25.533 24.5286C25.533 24.9122 25.2149 25.2247 24.8204 25.2247C24.426 25.2247 24.1078 24.9122 24.1078 24.5286C24.1078 24.145 24.426 23.8324 24.8204 23.8324C25.2149 23.8324 25.533 24.145 25.533 24.5286Z" fill="#FFD5EA" stroke="#9A3159" stroke-width="0.0867588"/>
<path d="M25.1719 24.5284C25.1719 24.715 25.0276 24.863 24.8537 24.863C24.6798 24.863 24.5356 24.715 24.5356 24.5284C24.5356 24.3417 24.6798 24.1938 24.8537 24.1938C25.0276 24.1938 25.1719 24.3417 25.1719 24.5284Z" fill="#FFD5EA" stroke="#9A3159" stroke-width="0.0867588"/>
<path d="M16.6123 11.7369C16.7422 11.9619 16.7182 12.2548 16.5618 12.5517C16.4058 12.8479 16.1204 13.1418 15.7415 13.3605C15.3627 13.5793 14.9655 13.6794 14.6309 13.6665C14.2957 13.6535 14.03 13.5278 13.9001 13.3028C13.7701 13.0778 13.7942 12.7849 13.9506 12.4881C14.1066 12.1918 14.392 11.898 14.7708 11.6792C15.1497 11.4605 15.5469 11.3603 15.8815 11.3732C16.2167 11.3862 16.4824 11.5119 16.6123 11.7369Z" fill="#564A77" stroke="black" stroke-width="0.0867588"/>
<ellipse cx="16.215" cy="11.8578" rx="0.275564" ry="0.264541" fill="white"/>
<path d="M21.2705 12.15C21.4004 12.375 21.3764 12.6679 21.22 12.9647C21.064 13.261 20.7786 13.5548 20.3997 13.7736C20.0209 13.9923 19.6237 14.0925 19.2891 14.0796C18.9539 14.0666 18.6882 13.9409 18.5583 13.7159C18.4284 13.4909 18.4524 13.198 18.6088 12.9011C18.7648 12.6049 19.0502 12.311 19.429 12.0923C19.8079 11.8735 20.2051 11.7734 20.5397 11.7863C20.8749 11.7993 21.1406 11.925 21.2705 12.15Z" fill="#564A77" stroke="black" stroke-width="0.0867588"/>
<ellipse cx="20.8732" cy="12.2709" rx="0.275564" ry="0.264541" fill="white"/>
<path d="M18.2725 17.0401C18.4024 17.2652 18.3784 17.5581 18.222 17.8549C18.0659 18.1511 17.7806 18.445 17.4017 18.6637C17.0228 18.8825 16.6257 18.9826 16.2911 18.9697C15.9558 18.9567 15.6902 18.8311 15.5602 18.606C15.4303 18.381 15.4543 18.0881 15.6107 17.7913C15.7668 17.495 16.0521 17.2012 16.431 16.9824C16.8099 16.7637 17.207 16.6635 17.5416 16.6765C17.8769 16.6894 18.1425 16.8151 18.2725 17.0401Z" fill="#564A77" stroke="black" stroke-width="0.0867588"/>
<ellipse cx="17.8752" cy="17.1615" rx="0.275564" ry="0.264541" fill="white"/>
</svg>
