<svg width="295" height="391" viewBox="0 0 295 391" fill="none" xmlns="http://www.w3.org/2000/svg">
<path d="M29.5183 16.2086H85.7617V389.273H2.36523L175 63.5H91L175 289.962H101.855L272.063 2H171.071L278 289.962H207.116L293 103.592V389.273" stroke="#C6181F" stroke-width="2.11"/>
<path d="M5.8877 33.4571L24 2.08571L42.1123 33.4571H5.8877Z" fill="#E4AA11" stroke="black" stroke-width="0.0857143"/>
<path d="M9.21469 31.5361L23.9992 5.92849L38.7838 31.5361H9.21469Z" fill="#F6D35F" stroke="black" stroke-width="0.0857143"/>
<path d="M21.7852 9.79328C22.7048 9.20055 24.6894 8.37073 25.2703 9.79328C25.7353 10.9321 26.0348 11.2415 26.1814 11.2612C26.2141 11.2486 26.2413 11.2383 26.2626 11.2304C26.2449 11.2531 26.2179 11.2662 26.1814 11.2612C25.9782 11.3395 25.5619 11.507 25.0282 11.742C24.2538 12.083 23.1647 12.0343 23.0195 10.9138C22.9033 10.0174 22.1482 9.79328 21.7852 9.79328Z" fill="#545C2B" stroke="black" stroke-width="0.0857143"/>
<path d="M32.8828 29.0179C33.8025 28.4252 35.7871 27.5953 36.3679 29.0179C36.8329 30.1567 37.1325 30.4661 37.279 30.4858C37.3117 30.4732 37.3389 30.4629 37.3602 30.4551C37.3425 30.4777 37.3155 30.4908 37.279 30.4858C37.0758 30.5641 36.6595 30.7316 36.1259 30.9666C35.3514 31.3076 34.2623 31.2589 34.1171 30.1384C34.001 29.242 33.2458 29.0179 32.8828 29.0179Z" fill="#545C2B" stroke="black" stroke-width="0.0857143"/>
<path d="M30.8338 22.44C31.9267 22.3865 34.0603 22.6602 33.852 24.1826C33.6853 25.4013 33.7901 25.819 33.9071 25.9094C33.9417 25.9148 33.9704 25.9195 33.9928 25.9233C33.9661 25.9341 33.9362 25.9319 33.9071 25.9094C33.692 25.8756 33.2477 25.8125 32.6681 25.7492C31.8269 25.6573 30.908 25.0705 31.3425 24.0275C31.6901 23.1931 31.1482 22.6215 30.8338 22.44Z" fill="#545C2B" stroke="black" stroke-width="0.0857143"/>
<path d="M11.4199 29.0179C12.3396 28.4252 14.3242 27.5953 14.905 29.0179C15.37 30.1567 15.6696 30.4661 15.8161 30.4858C15.8489 30.4732 15.8761 30.4629 15.8973 30.4551C15.8796 30.4777 15.8526 30.4908 15.8161 30.4858C15.6129 30.5641 15.1966 30.7316 14.663 30.9666C13.8885 31.3076 12.7994 31.2589 12.6542 30.1384C12.5381 29.242 11.783 29.0179 11.4199 29.0179Z" fill="#545C2B" stroke="black" stroke-width="0.0857143"/>
<path d="M13.7056 25.7379C13.6521 24.6451 13.9258 22.5115 15.4482 22.7197C16.6669 22.8865 17.0846 22.7817 17.175 22.6647C17.1805 22.6301 17.1851 22.6013 17.1889 22.579C17.1997 22.6056 17.1975 22.6356 17.175 22.6647C17.1412 22.8798 17.0781 23.3241 17.0148 23.9037C16.9229 24.7449 16.3362 25.6637 15.2932 25.2293C14.4588 24.8817 13.8871 25.4236 13.7056 25.7379Z" fill="#545C2B" stroke="black" stroke-width="0.0857143"/>
<circle cx="23.9762" cy="14.3126" r="1.85517" fill="#C6181F" stroke="black" stroke-width="0.0857143"/>
<circle cx="19.5465" cy="18.6925" r="1.85517" fill="#C6181F" stroke="black" stroke-width="0.0857143"/>
<circle cx="19.4976" cy="23.2672" r="1.85517" fill="#C6181F" stroke="black" stroke-width="0.0857143"/>
<circle cx="19.9371" cy="28.2325" r="1.85517" fill="#C6181F" stroke="black" stroke-width="0.0857143"/>
<circle cx="24.025" cy="18.6925" r="1.85517" fill="#C6181F" stroke="black" stroke-width="0.0857143"/>
<circle cx="23.9762" cy="23.2672" r="1.85517" fill="#C6181F" stroke="black" stroke-width="0.0857143"/>
<circle cx="24.4137" cy="28.2325" r="1.85517" fill="#C6181F" stroke="black" stroke-width="0.0857143"/>
<circle cx="28.5015" cy="18.6441" r="1.85517" fill="#C6181F" stroke="black" stroke-width="0.0857143"/>
<circle cx="28.4527" cy="23.2188" r="1.85517" fill="#C6181F" stroke="black" stroke-width="0.0857143"/>
<circle cx="28.8902" cy="28.1827" r="1.85517" fill="#C6181F" stroke="black" stroke-width="0.0857143"/>
<circle cx="26.7012" cy="14.46" r="1.70917" fill="#FFD5EA" stroke="#9A3159" stroke-width="0.0857143"/>
<path d="M27.9249 14.4602C27.9249 15.1353 27.3699 15.6836 26.6841 15.6836C25.9982 15.6836 25.4432 15.1353 25.4432 14.4602C25.4432 13.785 25.9982 13.2367 26.6841 13.2367C27.3699 13.2367 27.9249 13.785 27.9249 14.4602Z" fill="#FFD5EA" stroke="#9A3159" stroke-width="0.0857143"/>
<path d="M27.4398 14.4603C27.4398 14.8669 27.1026 15.198 26.6847 15.198C26.2668 15.198 25.9296 14.8669 25.9296 14.4603C25.9296 14.0537 26.2668 13.7225 26.6847 13.7225C27.1026 13.7225 27.4398 14.0537 27.4398 14.4603Z" fill="#FFD5EA" stroke="#9A3159" stroke-width="0.0857143"/>
<path d="M27.0563 14.4595C27.0563 14.658 26.9029 14.8156 26.7176 14.8156C26.5322 14.8156 26.3788 14.658 26.3788 14.4595C26.3788 14.261 26.5322 14.1034 26.7176 14.1034C26.9029 14.1034 27.0563 14.261 27.0563 14.4595Z" fill="#FFD5EA" stroke="#9A3159" stroke-width="0.0857143"/>
<circle cx="21.2501" cy="16.9879" r="1.70917" fill="#FFD5EA" stroke="#9A3159" stroke-width="0.0857143"/>
<path d="M22.4737 16.988C22.4737 17.6631 21.9187 18.2115 21.2329 18.2115C20.5471 18.2115 19.9921 17.6631 19.9921 16.988C19.9921 16.3128 20.5471 15.7645 21.2329 15.7645C21.9187 15.7645 22.4737 16.3128 22.4737 16.988Z" fill="#FFD5EA" stroke="#9A3159" stroke-width="0.0857143"/>
<path d="M21.9886 16.9881C21.9886 17.3947 21.6514 17.7259 21.2335 17.7259C20.8156 17.7259 20.4784 17.3947 20.4784 16.9881C20.4784 16.5816 20.8156 16.2504 21.2335 16.2504C21.6514 16.2504 21.9886 16.5816 21.9886 16.9881Z" fill="#FFD5EA" stroke="#9A3159" stroke-width="0.0857143"/>
<path d="M21.6071 16.9874C21.6071 17.1859 21.4537 17.3435 21.2683 17.3435C21.083 17.3435 20.9296 17.1859 20.9296 16.9874C20.9296 16.7889 21.083 16.6312 21.2683 16.6312C21.4537 16.6312 21.6071 16.7889 21.6071 16.9874Z" fill="#FFD5EA" stroke="#9A3159" stroke-width="0.0857143"/>
<circle cx="27.9669" cy="21.2232" r="1.70917" fill="#FFD5EA" stroke="#9A3159" stroke-width="0.0857143"/>
<path d="M29.1905 21.2233C29.1905 21.8985 28.6355 22.4468 27.9497 22.4468C27.2638 22.4468 26.7089 21.8985 26.7089 21.2233C26.7089 20.5482 27.2638 19.9999 27.9497 19.9999C28.6355 19.9999 29.1905 20.5482 29.1905 21.2233Z" fill="#FFD5EA" stroke="#9A3159" stroke-width="0.0857143"/>
<path d="M28.7054 21.2235C28.7054 21.63 28.3682 21.9612 27.9503 21.9612C27.5324 21.9612 27.1952 21.63 27.1952 21.2235C27.1952 20.8169 27.5324 20.4857 27.9503 20.4857C28.3682 20.4857 28.7054 20.8169 28.7054 21.2235Z" fill="#FFD5EA" stroke="#9A3159" stroke-width="0.0857143"/>
<path d="M28.322 21.2227C28.322 21.4212 28.1685 21.5788 27.9832 21.5788C27.7979 21.5788 27.6444 21.4212 27.6444 21.2227C27.6444 21.0242 27.7979 20.8666 27.9832 20.8666C28.1685 20.8666 28.322 21.0242 28.322 21.2227Z" fill="#FFD5EA" stroke="#9A3159" stroke-width="0.0857143"/>
<circle cx="21.4454" cy="24.5811" r="1.70917" fill="#FFD5EA" stroke="#9A3159" stroke-width="0.0857143"/>
<path d="M22.669 24.5813C22.669 25.2564 22.114 25.8047 21.4282 25.8047C20.7424 25.8047 20.1874 25.2564 20.1874 24.5813C20.1874 23.9061 20.7424 23.3578 21.4282 23.3578C22.114 23.3578 22.669 23.9061 22.669 24.5813Z" fill="#FFD5EA" stroke="#9A3159" stroke-width="0.0857143"/>
<path d="M22.1839 24.5814C22.1839 24.988 21.8467 25.3191 21.4288 25.3191C21.0109 25.3191 20.6737 24.988 20.6737 24.5814C20.6737 24.1748 21.0109 23.8436 21.4288 23.8436C21.8467 23.8436 22.1839 24.1748 22.1839 24.5814Z" fill="#FFD5EA" stroke="#9A3159" stroke-width="0.0857143"/>
<path d="M21.8024 24.5806C21.8024 24.7791 21.649 24.9367 21.4637 24.9367C21.2783 24.9367 21.1249 24.7791 21.1249 24.5806C21.1249 24.3821 21.2783 24.2245 21.4637 24.2245C21.649 24.2245 21.8024 24.3821 21.8024 24.5806Z" fill="#FFD5EA" stroke="#9A3159" stroke-width="0.0857143"/>
<circle cx="29.2325" cy="27.648" r="1.70917" fill="#FFD5EA" stroke="#9A3159" stroke-width="0.0857143"/>
<path d="M30.4561 27.6482C30.4561 28.3233 29.9011 28.8716 29.2153 28.8716C28.5295 28.8716 27.9745 28.3233 27.9745 27.6482C27.9745 26.973 28.5295 26.4247 29.2153 26.4247C29.9011 26.4247 30.4561 26.973 30.4561 27.6482Z" fill="#FFD5EA" stroke="#9A3159" stroke-width="0.0857143"/>
<path d="M29.971 27.6483C29.971 28.0548 29.6338 28.386 29.2159 28.386C28.798 28.386 28.4608 28.0548 28.4608 27.6483C28.4608 27.2417 28.798 26.9105 29.2159 26.9105C29.6338 26.9105 29.971 27.2417 29.971 27.6483Z" fill="#FFD5EA" stroke="#9A3159" stroke-width="0.0857143"/>
<path d="M29.5876 27.6475C29.5876 27.846 29.4341 28.0036 29.2488 28.0036C29.0635 28.0036 28.91 27.846 28.91 27.6475C28.91 27.449 29.0635 27.2914 29.2488 27.2914C29.4341 27.2914 29.5876 27.449 29.5876 27.6475Z" fill="#FFD5EA" stroke="#9A3159" stroke-width="0.0857143"/>
<path d="M20.5947 14.3704C20.3822 14.1479 20.7192 13.3929 20.9142 13.0432L21.7995 13.2564C21.947 13.2919 21.8624 14.517 21.7301 14.6438C21.5977 14.7706 20.8602 14.6485 20.5947 14.3704Z" fill="#F5E6D1" stroke="black" stroke-width="0.0857143"/>
<path d="M22.413 12.9517C22.3676 13.1403 22.222 13.2895 22.0166 13.3761C21.8113 13.4626 21.5489 13.4849 21.2788 13.4198C21.0087 13.3548 20.7852 13.2155 20.6418 13.045C20.4983 12.8745 20.4366 12.6753 20.4821 12.4867C20.5275 12.2981 20.6731 12.1489 20.8784 12.0623C21.0837 11.9758 21.3461 11.9535 21.6162 12.0185C21.8864 12.0836 22.1098 12.2228 22.2532 12.3934C22.3967 12.5639 22.4584 12.763 22.413 12.9517Z" fill="#F5E6D1" stroke="black" stroke-width="0.0857143"/>
<path d="M32.5328 26.0039C32.2255 25.9889 31.9497 25.2095 31.8502 24.8217L32.6388 24.3664C32.7702 24.2905 33.5528 25.2369 33.5442 25.4199C33.5356 25.603 32.9169 26.0226 32.5328 26.0039Z" fill="#F5E6D1" stroke="black" stroke-width="0.0857143"/>
<path d="M32.8733 23.7229C32.9703 23.8909 32.9675 24.0994 32.8783 24.3036C32.7891 24.5078 32.6142 24.7047 32.3736 24.8436C32.133 24.9825 31.8751 25.0355 31.6536 25.0107C31.4322 24.9859 31.2503 24.884 31.1533 24.716C31.0563 24.548 31.059 24.3395 31.1482 24.1353C31.2375 23.9311 31.4123 23.7343 31.6529 23.5953C31.8935 23.4564 32.1515 23.4034 32.3729 23.4282C32.5944 23.453 32.7763 23.5549 32.8733 23.7229Z" fill="#F5E6D1" stroke="black" stroke-width="0.0857143"/>
<path d="M15.4568 28.5632C15.3161 28.2896 15.8532 27.661 16.1393 27.381L16.9279 27.8362C17.0593 27.9121 16.631 29.063 16.4682 29.1471C16.3053 29.2312 15.6326 28.9052 15.4568 28.5632Z" fill="#F5E6D1" stroke="black" stroke-width="0.0857143"/>
<path d="M17.6019 27.7177C17.5049 27.8857 17.323 27.9876 17.1016 28.0124C16.8801 28.0372 16.6222 27.9842 16.3816 27.8453C16.141 27.7064 15.9661 27.5095 15.8769 27.3053C15.7876 27.1011 15.7849 26.8927 15.8819 26.7247C15.9789 26.5566 16.1608 26.4548 16.3823 26.43C16.6037 26.4051 16.8616 26.4581 17.1023 26.5971C17.3429 26.736 17.5177 26.9328 17.607 27.137C17.6962 27.3412 17.6989 27.5497 17.6019 27.7177Z" fill="#F5E6D1" stroke="black" stroke-width="0.0857143"/>
</svg>
