<svg width="1759" height="900" viewBox="0 0 1759 900" fill="none" xmlns="http://www.w3.org/2000/svg">
<path d="M157.5 113H405.5V897H23.5L23.5 602H831V226H567.5V431H1155V3H967V165H1606.5V602H1273.5V376H1756.5V874" stroke="#C6181F" stroke-width="5"/>
<rect x="0.200964" y="51.201" width="179.08" height="124.486" fill="#E4AA11" stroke="black" stroke-width="0.401928"/>
<rect x="11.6189" y="59.0506" width="156.243" height="108.429" fill="#F6D35F" stroke="black" stroke-width="0.401928"/>
<circle cx="33.7823" cy="75.5899" r="14.0472" fill="#C6181F" stroke="black" stroke-width="0.401928"/>
<circle cx="33.7823" cy="111.67" r="14.0472" fill="#C6181F" stroke="black" stroke-width="0.401928"/>
<circle cx="33.7823" cy="149.129" r="14.0472" fill="#C6181F" stroke="black" stroke-width="0.401928"/>
<circle cx="89.8546" cy="76.7383" r="14.0472" fill="#C6181F" stroke="black" stroke-width="0.401928"/>
<circle cx="89.8546" cy="112.818" r="14.0472" fill="#C6181F" stroke="black" stroke-width="0.401928"/>
<circle cx="89.8546" cy="150.277" r="14.0472" fill="#C6181F" stroke="black" stroke-width="0.401928"/>
<circle cx="145.929" cy="76.7383" r="14.0472" fill="#C6181F" stroke="black" stroke-width="0.401928"/>
<circle cx="145.929" cy="112.818" r="14.0472" fill="#C6181F" stroke="black" stroke-width="0.401928"/>
<circle cx="145.929" cy="150.277" r="14.0472" fill="#C6181F" stroke="black" stroke-width="0.401928"/>
<path d="M33.7822 81.2937C40.7684 76.8155 55.8438 70.546 60.2561 81.2937C63.7884 89.8978 66.0639 92.2351 67.177 92.3845C67.4256 92.2892 67.6323 92.2114 67.7939 92.1518C67.6594 92.3231 67.4543 92.4217 67.177 92.3845C65.6336 92.9758 62.4711 94.2414 58.4177 96.0166C52.5346 98.5931 44.2615 98.225 43.1584 89.7594C42.2759 82.9869 36.5399 81.2937 33.7822 81.2937Z" fill="#545C2B" stroke="black" stroke-width="0.401928"/>
<path d="M41.5957 110.249C48.5819 105.771 63.6573 99.5011 68.0696 110.249C71.6019 118.853 73.8774 121.19 74.9904 121.34C75.2391 121.244 75.4458 121.166 75.6073 121.107C75.4729 121.278 75.2677 121.377 74.9904 121.34C73.447 121.931 70.2846 123.196 66.2312 124.972C60.3481 127.548 52.075 127.18 50.9719 118.714C50.0894 111.942 44.3534 110.249 41.5957 110.249Z" fill="#545C2B" stroke="black" stroke-width="0.401928"/>
<path d="M39.5273 145.409C46.5135 140.931 61.5889 134.661 66.0013 145.409C69.5336 154.013 71.8091 156.35 72.9221 156.5C73.1708 156.404 73.3774 156.327 73.539 156.267C73.4045 156.438 73.1994 156.537 72.9221 156.5C71.3787 157.091 68.2162 158.357 64.1628 160.132C58.2797 162.708 50.0066 162.34 48.9035 153.875C48.0211 147.102 42.285 145.409 39.5273 145.409Z" fill="#545C2B" stroke="black" stroke-width="0.401928"/>
<path d="M94.2217 74.8582C101.208 70.38 116.283 64.1105 120.696 74.8582C124.228 83.4623 126.503 85.7995 127.616 85.9489C127.865 85.8536 128.072 85.7759 128.233 85.7163C128.099 85.8876 127.894 85.9861 127.616 85.9489C126.073 86.5403 122.911 87.8058 118.857 89.581C112.974 92.1575 104.701 91.7895 103.598 83.3238C102.715 76.5513 96.9794 74.8582 94.2217 74.8582Z" fill="#545C2B" stroke="black" stroke-width="0.401928"/>
<path d="M99.9668 110.938C106.953 106.46 122.028 100.191 126.441 110.938C129.973 119.542 132.249 121.88 133.362 122.029C133.61 121.934 133.817 121.856 133.978 121.796C133.844 121.968 133.639 122.066 133.362 122.029C131.818 122.62 128.656 123.886 124.602 125.661C118.719 128.238 110.446 127.87 109.343 119.404C108.461 112.631 102.724 110.938 99.9668 110.938Z" fill="#545C2B" stroke="black" stroke-width="0.401928"/>
<path d="M101.576 144.03C108.562 139.552 123.638 133.282 128.05 144.03C131.582 152.634 133.858 154.971 134.971 155.121C135.22 155.026 135.426 154.948 135.588 154.888C135.453 155.059 135.248 155.158 134.971 155.121C133.428 155.712 130.265 156.978 126.212 158.753C120.329 161.329 112.055 160.961 110.952 152.496C110.07 145.723 104.334 144.03 101.576 144.03Z" fill="#545C2B" stroke="black" stroke-width="0.401928"/>
<path d="M19.5851 91.6555C18.1894 90.3145 20.3243 86.1676 21.5662 84.2618L27.3309 85.8064C28.2916 86.0639 27.8293 92.9691 26.9788 93.6367C26.1284 94.3042 21.3297 93.3318 19.5851 91.6555Z" fill="#F5E6D1" stroke="black" stroke-width="0.401928"/>
<path d="M31.3671 84.3363C31.0853 85.3881 30.146 86.1875 28.7972 86.6059C27.4514 87.0234 25.727 87.0494 23.9468 86.5724C22.1667 86.0954 20.6863 85.2107 19.7295 84.1762C18.7707 83.1395 18.3569 81.9775 18.6388 80.9258C18.9206 79.874 19.8599 79.0746 21.2086 78.6562C22.5544 78.2387 24.2789 78.2127 26.059 78.6897C27.8391 79.1667 29.3196 80.0514 30.2763 81.0859C31.2352 82.1226 31.6489 83.2846 31.3671 84.3363Z" fill="#F5E6D1" stroke="black" stroke-width="0.401928"/>
<path d="M158.863 114.682C157.003 115.221 154.479 111.298 153.45 109.27L157.67 105.05C158.373 104.346 164.122 108.199 164.275 109.27C164.428 110.34 161.187 114.01 158.863 114.682Z" fill="#F5E6D1" stroke="black" stroke-width="0.401928"/>
<path d="M158.415 100.819C159.185 101.589 159.408 102.803 159.096 104.18C158.784 105.554 157.945 107.06 156.641 108.364C155.338 109.667 153.832 110.506 152.458 110.818C151.08 111.13 149.867 110.907 149.097 110.137C148.327 109.367 148.105 108.154 148.417 106.777C148.728 105.403 149.568 103.896 150.871 102.593C152.174 101.29 153.68 100.45 155.055 100.139C156.432 99.8268 157.645 100.05 158.415 100.819Z" fill="#F5E6D1" stroke="black" stroke-width="0.401928"/>
<path d="M28.343 140.002C27.8048 138.143 31.7272 135.619 33.7556 134.59L37.9756 138.81C38.6789 139.513 34.8259 145.262 33.7556 145.415C32.6853 145.568 29.0158 142.326 28.343 140.002Z" fill="#F5E6D1" stroke="black" stroke-width="0.401928"/>
<path d="M42.206 139.554C41.436 140.324 40.2228 140.546 38.8456 140.234C37.4714 139.923 35.9649 139.083 34.6618 137.78C33.3586 136.477 32.5189 134.97 32.2075 133.596C31.8955 132.219 32.1182 131.006 32.8882 130.236C33.6581 129.466 34.8713 129.243 36.2485 129.555C37.6228 129.867 39.1292 130.706 40.4323 132.01C41.7355 133.313 42.5752 134.819 42.8866 136.193C43.1986 137.571 42.9759 138.784 42.206 139.554Z" fill="#F5E6D1" stroke="black" stroke-width="0.401928"/>
<path d="M88.1831 133.075C86.3039 132.612 86.0794 127.953 86.202 125.682L91.9666 124.137C92.9274 123.88 95.9796 130.091 95.5769 131.094C95.1741 132.098 90.5322 133.655 88.1831 133.075Z" fill="#F5E6D1" stroke="black" stroke-width="0.401928"/>
<path d="M94.7268 120.845C95.0087 121.897 94.5949 123.059 93.6361 124.095C92.6793 125.13 91.1989 126.014 89.4188 126.491C87.6386 126.968 85.9142 126.942 84.5684 126.525C83.2196 126.107 82.2803 125.307 81.9985 124.255C81.7167 123.204 82.1304 122.042 83.0893 121.005C84.046 119.97 85.5265 119.086 87.3066 118.609C89.0867 118.132 90.8112 118.158 92.157 118.575C93.5057 118.994 94.445 119.793 94.7268 120.845Z" fill="#F5E6D1" stroke="black" stroke-width="0.401928"/>
<path d="M102.085 97.6301C100.689 96.2891 102.824 92.1422 104.066 90.2364L109.831 91.781C110.792 92.0385 110.329 98.9437 109.479 99.6113C108.628 100.279 103.83 99.3065 102.085 97.6301Z" fill="#F5E6D1" stroke="black" stroke-width="0.401928"/>
<path d="M113.867 90.3109C113.585 91.3627 112.646 92.1621 111.297 92.5805C109.951 92.998 108.227 93.024 106.447 92.547C104.667 92.07 103.186 91.1853 102.23 90.1508C101.271 89.1141 100.857 87.9521 101.139 86.9004C101.421 85.8486 102.36 85.0492 103.709 84.6308C105.054 84.2133 106.779 84.1873 108.559 84.6643C110.339 85.1413 111.82 86.026 112.776 87.0605C113.735 88.0972 114.149 89.2592 113.867 90.3109Z" fill="#F5E6D1" stroke="black" stroke-width="0.401928"/>
</svg>
