<svg width="291" height="397" viewBox="0 0 291 397" fill="none" xmlns="http://www.w3.org/2000/svg">
<path d="M19.1502 20.3577H68.3808V395H6V290.5H153.5V98.5291H80.5V189.105H202V10H141.5V71.5772H272.5V264.659H210.126V198H289V384.838" stroke="#C6181F" stroke-width="2.10878"/>
<rect x="0.0538226" y="0.0538226" width="47.9615" height="33.34" fill="#E4AA11" stroke="black" stroke-width="0.107645"/>
<rect x="3.11242" y="2.15661" width="41.8453" height="29.0396" fill="#F6D35F" stroke="black" stroke-width="0.107645"/>
<circle cx="9.04838" cy="6.585" r="3.76214" fill="#C6181F" stroke="black" stroke-width="0.107645"/>
<circle cx="9.04838" cy="16.2488" r="3.76214" fill="#C6181F" stroke="black" stroke-width="0.107645"/>
<circle cx="9.04838" cy="26.2796" r="3.76214" fill="#C6181F" stroke="black" stroke-width="0.107645"/>
<circle cx="24.066" cy="6.89213" r="3.76214" fill="#C6181F" stroke="black" stroke-width="0.107645"/>
<circle cx="24.066" cy="16.554" r="3.76214" fill="#C6181F" stroke="black" stroke-width="0.107645"/>
<circle cx="24.066" cy="26.5882" r="3.76214" fill="#C6181F" stroke="black" stroke-width="0.107645"/>
<circle cx="39.0835" cy="6.89213" r="3.76214" fill="#C6181F" stroke="black" stroke-width="0.107645"/>
<circle cx="39.0835" cy="16.554" r="3.76214" fill="#C6181F" stroke="black" stroke-width="0.107645"/>
<circle cx="39.0835" cy="26.5882" r="3.76214" fill="#C6181F" stroke="black" stroke-width="0.107645"/>
<path d="M9.04688 8.11279C10.9179 6.91343 14.9555 5.23432 16.1372 8.11279C17.0832 10.4172 17.6926 11.0431 17.9907 11.0831C18.0573 11.0576 18.1127 11.0368 18.1559 11.0208C18.1199 11.0667 18.065 11.0931 17.9907 11.0831C17.5774 11.2415 16.7304 11.5805 15.6448 12.0559C14.0692 12.7459 11.8535 12.6474 11.558 10.3801C11.3217 8.56625 9.78545 8.11279 9.04688 8.11279Z" fill="#545C2B" stroke="black" stroke-width="0.107645"/>
<path d="M11.1406 15.8672C13.0117 14.6678 17.0492 12.9887 18.2309 15.8672C19.177 18.1716 19.7864 18.7975 20.0845 18.8375C20.1511 18.812 20.2064 18.7912 20.2497 18.7752C20.2137 18.8211 20.1587 18.8475 20.0845 18.8375C19.6711 18.9959 18.8241 19.3349 17.7385 19.8103C16.1629 20.5003 13.9472 20.4018 13.6518 18.1345C13.4154 16.3206 11.8792 15.8672 11.1406 15.8672Z" fill="#545C2B" stroke="black" stroke-width="0.107645"/>
<path d="M10.5859 25.2839C12.457 24.0846 16.4945 22.4055 17.6762 25.2839C18.6223 27.5883 19.2317 28.2143 19.5298 28.2543C19.5964 28.2288 19.6517 28.2079 19.695 28.192C19.659 28.2378 19.6041 28.2642 19.5298 28.2543C19.1164 28.4127 18.2695 28.7516 17.1839 29.227C15.6082 29.9171 13.3925 29.8185 13.0971 27.5512C12.8607 25.7374 11.3245 25.2839 10.5859 25.2839Z" fill="#545C2B" stroke="black" stroke-width="0.107645"/>
<path d="M25.2344 6.38891C27.1054 5.18955 31.143 3.51044 32.3247 6.38891C33.2707 8.69328 33.8801 9.31925 34.1782 9.35926C34.2448 9.33374 34.3002 9.31291 34.3434 9.29695C34.3074 9.34283 34.2525 9.36923 34.1782 9.35926C33.7649 9.51764 32.9179 9.85658 31.8323 10.332C30.2567 11.0221 28.041 10.9235 27.7455 8.6562C27.5092 6.84237 25.9729 6.38891 25.2344 6.38891Z" fill="#545C2B" stroke="black" stroke-width="0.107645"/>
<path d="M26.7734 16.0525C28.6445 14.8531 32.682 13.174 33.8637 16.0525C34.8098 18.3569 35.4192 18.9828 35.7173 19.0228C35.7839 18.9973 35.8392 18.9765 35.8825 18.9605C35.8465 19.0064 35.7916 19.0328 35.7173 19.0228C35.3039 19.1812 34.457 19.5202 33.3714 19.9956C31.7957 20.6856 29.58 20.5871 29.2846 18.3198C29.0482 16.5059 27.512 16.0525 26.7734 16.0525Z" fill="#545C2B" stroke="black" stroke-width="0.107645"/>
<path d="M27.2031 24.915C29.0742 23.7157 33.1117 22.0366 34.2934 24.915C35.2395 27.2194 35.8489 27.8454 36.147 27.8854C36.2136 27.8599 36.2689 27.839 36.3122 27.8231C36.2762 27.869 36.2212 27.8954 36.147 27.8854C35.7336 28.0438 34.8866 28.3827 33.801 28.8581C32.2254 29.5482 30.0097 29.4496 29.7143 27.1823C29.4779 25.3685 27.9417 24.915 27.2031 24.915Z" fill="#545C2B" stroke="black" stroke-width="0.107645"/>
<path d="M5.24476 10.8884C4.87095 10.5292 5.44274 9.41856 5.77535 8.90815L7.31924 9.32183C7.57656 9.39078 7.45273 11.2402 7.22496 11.4189C6.99719 11.5977 5.71201 11.3373 5.24476 10.8884Z" fill="#F5E6D1" stroke="black" stroke-width="0.107645"/>
<path d="M8.40048 8.9297C8.325 9.21138 8.07344 9.42549 7.71221 9.53755C7.35178 9.64936 6.88993 9.65632 6.41317 9.52857C5.93641 9.40083 5.53991 9.16387 5.28367 8.88682C5.02687 8.60917 4.91607 8.29796 4.99154 8.01628C5.06702 7.7346 5.31858 7.52049 5.67981 7.40843C6.04024 7.29662 6.50209 7.28966 6.97885 7.4174C7.45561 7.54515 7.85211 7.78211 8.10835 8.05916C8.36515 8.33681 8.47595 8.64802 8.40048 8.9297Z" fill="#F5E6D1" stroke="black" stroke-width="0.107645"/>
<path d="M42.5468 17.0582C42.0489 17.2024 41.3729 16.1519 41.0972 15.6086L42.2274 14.4784C42.4158 14.2901 43.9555 15.322 43.9964 15.6086C44.0374 15.8953 43.1692 16.8781 42.5468 17.0582Z" fill="#F5E6D1" stroke="black" stroke-width="0.107645"/>
<path d="M42.4264 13.3444C42.6326 13.5506 42.6923 13.8755 42.6087 14.2443C42.5253 14.6124 42.3004 15.0159 41.9514 15.3649C41.6024 15.7139 41.1989 15.9388 40.8309 16.0222C40.462 16.1057 40.1371 16.0461 39.9309 15.8399C39.7247 15.6337 39.665 15.3088 39.7486 14.9399C39.832 14.5719 40.0569 14.1684 40.4059 13.8194C40.7549 13.4704 41.1584 13.2455 41.5264 13.1621C41.8953 13.0785 42.2202 13.1382 42.4264 13.3444Z" fill="#F5E6D1" stroke="black" stroke-width="0.107645"/>
<path d="M7.59093 23.84C7.44679 23.3421 8.49728 22.6661 9.04055 22.3904L10.1708 23.5206C10.3591 23.709 9.32719 25.2487 9.04055 25.2896C8.7539 25.3306 7.77111 24.4624 7.59093 23.84Z" fill="#F5E6D1" stroke="black" stroke-width="0.107645"/>
<path d="M11.3048 23.7189C11.0986 23.9251 10.7737 23.9847 10.4048 23.9012C10.0368 23.8178 9.63332 23.5929 9.2843 23.2439C8.93529 22.8949 8.71039 22.4914 8.62701 22.1233C8.54344 21.7545 8.60309 21.4296 8.80929 21.2234C9.01549 21.0172 9.34041 20.9575 9.70927 21.0411C10.0773 21.1245 10.4808 21.3494 10.8298 21.6984C11.1788 22.0474 11.4037 22.4509 11.4871 22.8189C11.5707 23.1878 11.511 23.5127 11.3048 23.7189Z" fill="#F5E6D1" stroke="black" stroke-width="0.107645"/>
<path d="M23.6165 21.983C23.1132 21.8588 23.0531 20.6111 23.0859 20.0027L24.6298 19.5891C24.8871 19.5201 25.7046 21.1836 25.5967 21.4524C25.4888 21.7211 24.2456 22.1381 23.6165 21.983Z" fill="#F5E6D1" stroke="black" stroke-width="0.107645"/>
<path d="M25.369 18.7073C25.4445 18.989 25.3337 19.3002 25.0769 19.5779C24.8207 19.8549 24.4242 20.0919 23.9474 20.2196C23.4706 20.3474 23.0088 20.3404 22.6484 20.2286C22.2871 20.1165 22.0356 19.9024 21.9601 19.6207C21.8846 19.3391 21.9954 19.0279 22.2522 18.7502C22.5085 18.4731 22.905 18.2362 23.3817 18.1084C23.8585 17.9807 24.3203 17.9877 24.6808 18.0995C25.042 18.2115 25.2935 18.4256 25.369 18.7073Z" fill="#F5E6D1" stroke="black" stroke-width="0.107645"/>
<path d="M27.3405 12.4926C26.9667 12.1334 27.5384 11.0228 27.8711 10.5124L29.4149 10.9261C29.6723 10.995 29.5484 12.8444 29.3207 13.0232C29.0929 13.202 27.8077 12.9416 27.3405 12.4926Z" fill="#F5E6D1" stroke="black" stroke-width="0.107645"/>
<path d="M30.4962 10.5322C30.4207 10.8139 30.1691 11.028 29.8079 11.1401C29.4475 11.2519 28.9856 11.2589 28.5089 11.1311C28.0321 11.0034 27.6356 10.7664 27.3794 10.4894C27.1226 10.2117 27.0118 9.9005 27.0872 9.61882C27.1627 9.33714 27.4143 9.12302 27.7755 9.01097C28.1359 8.89916 28.5978 8.8922 29.0746 9.01994C29.5513 9.14769 29.9478 9.38465 30.2041 9.6617C30.4609 9.93935 30.5717 10.2506 30.4962 10.5322Z" fill="#F5E6D1" stroke="black" stroke-width="0.107645"/>
</svg>
