<svg width="1715" height="887" viewBox="0 0 1715 887" fill="none" xmlns="http://www.w3.org/2000/svg">
<path d="M107.5 80H450V884H13L875.5 139.5H515L875.5 658H548L1584.5 50H969.5L1584.5 672L1189 658L1712 264.5V834.5" stroke="#C6181F" stroke-width="5"/>
<path d="M13.6822 149.047L99.5 0.406125L185.318 149.047H13.6822Z" fill="#E4AA11" stroke="black" stroke-width="0.406122"/>
<path d="M29.4491 139.944L99.4997 18.6132L169.55 139.944H29.4491Z" fill="#F6D35F" stroke="black" stroke-width="0.406122"/>
<path d="M89.0078 36.9267C93.3654 34.1183 102.768 30.1865 105.521 36.9267C107.724 42.3226 109.143 43.7883 109.837 43.882C109.993 43.8223 110.121 43.7735 110.222 43.7361C110.138 43.8435 110.01 43.9053 109.837 43.882C108.875 44.2529 106.902 45.0465 104.374 46.1598C100.704 47.7756 95.5441 47.5448 94.8561 42.2357C94.3057 37.9885 90.7279 36.9267 89.0078 36.9267Z" fill="#545C2B" stroke="black" stroke-width="0.406122"/>
<path d="M141.583 128.011C145.941 125.202 155.344 121.27 158.096 128.011C160.299 133.407 161.718 134.872 162.413 134.966C162.568 134.906 162.697 134.857 162.797 134.82C162.714 134.928 162.586 134.989 162.413 134.966C161.45 135.337 159.477 136.131 156.949 137.244C153.28 138.86 148.119 138.629 147.431 133.32C146.881 129.072 143.303 128.011 141.583 128.011Z" fill="#545C2B" stroke="black" stroke-width="0.406122"/>
<path d="M131.881 96.8421C137.059 96.5888 147.169 97.8853 146.182 105.099C145.392 110.873 145.888 112.852 146.443 113.28C146.607 113.306 146.743 113.328 146.849 113.346C146.723 113.398 146.581 113.387 146.443 113.28C145.424 113.12 143.318 112.821 140.572 112.521C136.586 112.086 132.233 109.306 134.292 104.364C135.939 100.411 133.371 97.7022 131.881 96.8421Z" fill="#545C2B" stroke="black" stroke-width="0.406122"/>
<path d="M39.8926 128.011C44.2501 125.202 53.6532 121.27 56.4054 128.011C58.6086 133.407 60.0279 134.872 60.7222 134.966C60.8773 134.906 61.0062 134.857 61.1069 134.82C61.0231 134.928 60.8951 134.989 60.7222 134.966C59.7595 135.337 57.7869 136.131 55.2587 137.244C51.5891 138.86 46.4289 138.629 45.7409 133.32C45.1904 129.072 41.6127 128.011 39.8926 128.011Z" fill="#545C2B" stroke="black" stroke-width="0.406122"/>
<path d="M50.725 112.468C50.4716 107.29 51.7681 97.181 58.9814 98.1677C64.7559 98.9576 66.735 98.4613 67.1632 97.9069C67.189 97.7427 67.2112 97.6067 67.2293 97.5008C67.2804 97.6271 67.2699 97.7688 67.1632 97.9069C67.0031 98.9261 66.7041 101.031 66.4041 103.777C65.9687 107.763 63.1886 112.117 58.2469 110.058C54.2934 108.411 51.585 110.979 50.725 112.468Z" fill="#545C2B" stroke="black" stroke-width="0.406122"/>
<circle cx="99.3847" cy="58.3388" r="8.78999" fill="#C6181F" stroke="black" stroke-width="0.406122"/>
<circle cx="78.4013" cy="79.0927" r="8.78999" fill="#C6181F" stroke="black" stroke-width="0.406122"/>
<circle cx="78.1698" cy="100.768" r="8.78999" fill="#C6181F" stroke="black" stroke-width="0.406122"/>
<circle cx="80.245" cy="124.288" r="8.78999" fill="#C6181F" stroke="black" stroke-width="0.406122"/>
<circle cx="99.6151" cy="79.0927" r="8.78999" fill="#C6181F" stroke="black" stroke-width="0.406122"/>
<circle cx="99.3847" cy="100.768" r="8.78999" fill="#C6181F" stroke="black" stroke-width="0.406122"/>
<circle cx="101.461" cy="124.288" r="8.78999" fill="#C6181F" stroke="black" stroke-width="0.406122"/>
<circle cx="120.83" cy="78.8622" r="8.78999" fill="#C6181F" stroke="black" stroke-width="0.406122"/>
<circle cx="120.599" cy="100.538" r="8.78999" fill="#C6181F" stroke="black" stroke-width="0.406122"/>
<circle cx="122.675" cy="124.058" r="8.78999" fill="#C6181F" stroke="black" stroke-width="0.406122"/>
<circle cx="112.297" cy="59.0317" r="8.09821" fill="#FFD5EA" stroke="#9A3159" stroke-width="0.406122"/>
<path d="M118.095 59.0312C118.095 62.2301 115.465 64.8281 112.216 64.8281C108.966 64.8281 106.337 62.2301 106.337 59.0312C106.337 55.8323 108.966 53.2343 112.216 53.2343C115.465 53.2343 118.095 55.8323 118.095 59.0312Z" fill="#FFD5EA" stroke="#9A3159" stroke-width="0.406122"/>
<path d="M115.793 59.0326C115.793 60.9589 114.195 62.5281 112.215 62.5281C110.235 62.5281 108.638 60.9589 108.638 59.0326C108.638 57.1062 110.235 55.537 112.215 55.537C114.195 55.537 115.793 57.1062 115.793 59.0326Z" fill="#FFD5EA" stroke="#9A3159" stroke-width="0.406122"/>
<path d="M113.986 59.031C113.986 59.9715 113.259 60.7183 112.38 60.7183C111.502 60.7183 110.775 59.9715 110.775 59.031C110.775 58.0905 111.502 57.3437 112.38 57.3437C113.259 57.3437 113.986 58.0905 113.986 59.031Z" fill="#FFD5EA" stroke="#9A3159" stroke-width="0.406122"/>
<circle cx="86.4722" cy="71.022" r="8.09821" fill="#FFD5EA" stroke="#9A3159" stroke-width="0.406122"/>
<path d="M92.2688 71.0214C92.2688 74.2203 89.6393 76.8183 86.3897 76.8183C83.1402 76.8183 80.5107 74.2203 80.5107 71.0214C80.5107 67.8225 83.1402 65.2245 86.3897 65.2245C89.6393 65.2245 92.2688 67.8225 92.2688 71.0214Z" fill="#FFD5EA" stroke="#9A3159" stroke-width="0.406122"/>
<path d="M89.9669 71.0228C89.9669 72.9491 88.3693 74.5183 86.3892 74.5183C84.409 74.5183 82.8115 72.9491 82.8115 71.0228C82.8115 69.0965 84.409 67.5273 86.3892 67.5273C88.3693 67.5273 89.9669 69.0965 89.9669 71.0228Z" fill="#FFD5EA" stroke="#9A3159" stroke-width="0.406122"/>
<path d="M88.1594 71.0212C88.1594 71.9617 87.4324 72.7086 86.5543 72.7086C85.6762 72.7086 84.9492 71.9617 84.9492 71.0212C84.9492 70.0808 85.6762 69.3339 86.5543 69.3339C87.4324 69.3339 88.1594 70.0808 88.1594 71.0212Z" fill="#FFD5EA" stroke="#9A3159" stroke-width="0.406122"/>
<circle cx="118.293" cy="91.0845" r="8.09821" fill="#FFD5EA" stroke="#9A3159" stroke-width="0.406122"/>
<path d="M124.09 91.0839C124.09 94.2828 121.461 96.8808 118.211 96.8808C114.961 96.8808 112.332 94.2828 112.332 91.0839C112.332 87.885 114.961 85.287 118.211 85.287C121.461 85.287 124.09 87.885 124.09 91.0839Z" fill="#FFD5EA" stroke="#9A3159" stroke-width="0.406122"/>
<path d="M121.789 91.0834C121.789 93.0097 120.192 94.5789 118.211 94.5789C116.231 94.5789 114.634 93.0097 114.634 91.0834C114.634 89.157 116.231 87.5878 118.211 87.5878C120.192 87.5878 121.789 89.157 121.789 91.0834Z" fill="#FFD5EA" stroke="#9A3159" stroke-width="0.406122"/>
<path d="M119.982 91.0837C119.982 92.0242 119.255 92.7711 118.377 92.7711C117.498 92.7711 116.771 92.0242 116.771 91.0837C116.771 90.1433 117.498 89.3964 118.377 89.3964C119.255 89.3964 119.982 90.1433 119.982 91.0837Z" fill="#FFD5EA" stroke="#9A3159" stroke-width="0.406122"/>
<circle cx="87.3941" cy="106.995" r="8.09821" fill="#FFD5EA" stroke="#9A3159" stroke-width="0.406122"/>
<path d="M93.1917 106.994C93.1917 110.193 90.5621 112.791 87.3126 112.791C84.0631 112.791 81.4335 110.193 81.4335 106.994C81.4335 103.795 84.0631 101.197 87.3126 101.197C90.5621 101.197 93.1917 103.795 93.1917 106.994Z" fill="#FFD5EA" stroke="#9A3159" stroke-width="0.406122"/>
<path d="M90.8897 106.995C90.8897 108.922 89.2922 110.491 87.312 110.491C85.3319 110.491 83.7343 108.922 83.7343 106.995C83.7343 105.069 85.3319 103.5 87.312 103.5C89.2922 103.5 90.8897 105.069 90.8897 106.995Z" fill="#FFD5EA" stroke="#9A3159" stroke-width="0.406122"/>
<path d="M89.0823 106.994C89.0823 107.934 88.3552 108.681 87.4771 108.681C86.5991 108.681 85.872 107.934 85.872 106.994C85.872 106.053 86.5991 105.307 87.4771 105.307C88.3552 105.307 89.0823 106.053 89.0823 106.994Z" fill="#FFD5EA" stroke="#9A3159" stroke-width="0.406122"/>
<circle cx="124.289" cy="121.522" r="8.09821" fill="#FFD5EA" stroke="#9A3159" stroke-width="0.406122"/>
<path d="M130.085 121.521C130.085 124.72 127.456 127.318 124.206 127.318C120.957 127.318 118.327 124.72 118.327 121.521C118.327 118.322 120.957 115.725 124.206 115.725C127.456 115.725 130.085 118.322 130.085 121.521Z" fill="#FFD5EA" stroke="#9A3159" stroke-width="0.406122"/>
<path d="M127.783 121.521C127.783 123.447 126.186 125.016 124.206 125.016C122.225 125.016 120.628 123.447 120.628 121.521C120.628 119.595 122.225 118.025 124.206 118.025C126.186 118.025 127.783 119.595 127.783 121.521Z" fill="#FFD5EA" stroke="#9A3159" stroke-width="0.406122"/>
<path d="M125.976 121.521C125.976 122.462 125.249 123.209 124.371 123.209C123.493 123.209 122.766 122.462 122.766 121.521C122.766 120.581 123.493 119.834 124.371 119.834C125.249 119.834 125.976 120.581 125.976 121.521Z" fill="#FFD5EA" stroke="#9A3159" stroke-width="0.406122"/>
<path d="M83.3634 58.6068C82.3568 57.5525 83.9534 53.9754 84.8776 52.3186L89.0719 53.3285C89.771 53.4968 89.3701 59.3014 88.7431 59.9022C88.1161 60.5029 84.6218 59.9246 83.3634 58.6068Z" fill="#F5E6D1" stroke="black" stroke-width="0.406122"/>
<path d="M91.9759 51.8848C91.7607 52.7785 91.0709 53.4856 90.098 53.8957C89.1251 54.3057 87.882 54.4113 86.6021 54.1031C85.3222 53.7949 84.2635 53.1351 83.5839 52.3272C82.9042 51.5191 82.6119 50.5755 82.8271 49.6819C83.0423 48.7882 83.732 48.0811 84.705 47.671C85.6779 47.2609 86.9209 47.1554 88.2008 47.4636C89.4808 47.7718 90.5395 48.4316 91.2191 49.2395C91.8988 50.0475 92.1911 50.9911 91.9759 51.8848Z" fill="#F5E6D1" stroke="black" stroke-width="0.406122"/>
<path d="M139.927 113.722C138.471 113.651 137.165 109.958 136.693 108.121L140.43 105.964C141.052 105.604 144.76 110.088 144.72 110.955C144.679 111.823 141.747 113.811 139.927 113.722Z" fill="#F5E6D1" stroke="black" stroke-width="0.406122"/>
<path d="M141.541 102.916C142.001 103.712 141.988 104.7 141.565 105.667C141.143 106.635 140.314 107.568 139.174 108.226C138.034 108.884 136.812 109.135 135.763 109.018C134.713 108.9 133.852 108.417 133.392 107.621C132.932 106.825 132.945 105.838 133.368 104.87C133.791 103.903 134.619 102.97 135.759 102.312C136.899 101.653 138.121 101.402 139.171 101.52C140.22 101.637 141.082 102.12 141.541 102.916Z" fill="#F5E6D1" stroke="black" stroke-width="0.406122"/>
<path d="M59.0239 125.858C58.3572 124.561 60.9021 121.583 62.2579 120.256L65.9941 122.413C66.6168 122.773 64.5875 128.226 63.816 128.624C63.0445 129.023 59.8572 127.478 59.0239 125.858Z" fill="#F5E6D1" stroke="black" stroke-width="0.406122"/>
<path d="M69.1884 121.852C68.7288 122.648 67.867 123.131 66.8177 123.248C65.7685 123.366 64.5465 123.115 63.4064 122.456C62.2662 121.798 61.4378 120.865 61.015 119.898C60.5922 118.93 60.5793 117.943 61.0389 117.147C61.4985 116.351 62.3604 115.868 63.4097 115.75C64.4589 115.633 65.6809 115.884 66.821 116.542C67.9611 117.2 68.7895 118.133 69.2123 119.1C69.6351 120.068 69.648 121.056 69.1884 121.852Z" fill="#F5E6D1" stroke="black" stroke-width="0.406122"/>
</svg>
