<svg width="1740" height="870" viewBox="0 0 1740 870" fill="none" xmlns="http://www.w3.org/2000/svg">
<path d="M146 88.4995C208.5 51.9995 384.3 -22.3005 507.5 120.499C661.5 298.999 415 373.499 319.5 366.999C224 360.499 233 193.999 347 206.499C461 218.999 507.5 341.499 507.5 421.999C507.5 502.499 537.181 1054.94 146.5 800.999C36.5002 729.499 11.5003 465.5 550.5 542.5C1089.5 619.499 1112 239.499 951 206.499C698.481 154.741 436 520.999 997 600.999C1558 680.999 1807 167.999 1441 144.999C1297.31 135.97 1056 425.499 1441 563.999C1749 674.799 1749.5 731.499 1730.5 828.499" stroke="#C6181F" stroke-width="5"/>
<circle cx="93.5" cy="93.5" r="93.2543" fill="#E4AA11" stroke="black" stroke-width="0.491459"/>
<circle cx="93.5003" cy="93.5003" r="79.4968" fill="#F6D35F" stroke="black" stroke-width="0.491459"/>
<path d="M123.067 46.0361C123.067 50.7914 117.19 53.9301 114.252 54.9051L107.875 56.6506C110.001 56.7292 115.306 57.4139 119.175 56.6506C123.958 55.707 127.99 49.9988 129.491 43.8188C130.991 37.6388 128.975 33.912 125.317 33.4402C121.66 32.9685 123.067 40.092 123.067 46.0361Z" fill="#C6181F" stroke="black" stroke-width="0.491459"/>
<path d="M54.4319 65.5648C54.4319 70.2705 48.4899 73.3766 45.519 74.3414L39.0713 76.0687C41.2205 76.1465 46.5845 76.8241 50.4969 76.0687C55.3327 75.135 59.4099 69.4863 60.927 63.3706C62.4441 57.255 60.4055 53.567 56.7076 53.1001C53.0096 52.6333 54.4319 59.6826 54.4319 65.5648Z" fill="#C6181F" stroke="black" stroke-width="0.491459"/>
<path d="M139.777 96.4111C139.777 101.166 133.9 104.305 130.962 105.28L124.585 107.026C126.711 107.104 132.016 107.789 135.885 107.026C140.668 106.082 144.7 100.374 146.2 94.1938C147.701 88.0138 145.685 84.287 142.027 83.8152C138.37 83.3435 139.777 90.467 139.777 96.4111Z" fill="#C6181F" stroke="black" stroke-width="0.491459"/>
<path d="M54.4319 128.602C54.4319 133.358 48.4899 136.497 45.519 137.471L39.0713 139.217C41.2205 139.296 46.5845 139.98 50.4969 139.217C55.3327 138.273 59.4099 132.565 60.927 126.385C62.4441 120.205 60.4055 116.478 56.7076 116.007C53.0096 115.535 54.4319 122.658 54.4319 128.602Z" fill="#C6181F" stroke="black" stroke-width="0.491459"/>
<path d="M118.89 138.923C118.89 143.678 113.013 146.817 110.075 147.792L103.698 149.537C105.824 149.616 111.129 150.301 114.998 149.537C119.781 148.594 123.813 142.886 125.314 136.706C126.814 130.526 124.798 126.799 121.141 126.327C117.483 125.855 118.89 132.979 118.89 138.923Z" fill="#C6181F" stroke="black" stroke-width="0.491459"/>
<path d="M125.369 34.1566C125.631 33.1485 125.84 31 124.585 30.4707" stroke="black" stroke-width="0.737188"/>
<path d="M56.7609 53.8148C57.0878 52.8067 57.3493 50.6582 55.7803 50.1289" stroke="black" stroke-width="0.737188"/>
<path d="M142.078 84.5301C142.34 83.5891 142.549 81.5838 141.294 81.0898" stroke="black" stroke-width="0.737188"/>
<path d="M56.7609 116.721C57.0878 115.713 57.3493 113.564 55.7803 113.035" stroke="black" stroke-width="0.737188"/>
<path d="M121.192 127.288C121.453 126.279 121.662 124.131 120.407 123.602" stroke="black" stroke-width="0.737188"/>
<ellipse cx="125.445" cy="34.1555" rx="0.368594" ry="0.491459" fill="black"/>
<ellipse cx="56.8862" cy="53.8157" rx="0.368594" ry="0.491459" fill="black"/>
<ellipse cx="142.155" cy="84.6534" rx="0.368594" ry="0.614323" fill="black"/>
<ellipse cx="56.8862" cy="116.722" rx="0.368594" ry="0.491459" fill="black"/>
<ellipse cx="121.268" cy="127.288" rx="0.368594" ry="0.491459" fill="black"/>
<circle cx="78.9268" cy="31.9307" r="8.68689" fill="#545C2B" stroke="black" stroke-width="0.491459"/>
<circle cx="78.7707" cy="31.7756" r="5.11384" fill="#F6D35F" stroke="black" stroke-width="0.491459"/>
<circle cx="41.8398" cy="98.0088" r="8.68689" fill="#545C2B" stroke="black" stroke-width="0.491459"/>
<circle cx="41.6848" cy="97.8537" r="5.11384" fill="#F6D35F" stroke="black" stroke-width="0.491459"/>
<circle cx="135.863" cy="65.8838" r="8.68689" fill="#545C2B" stroke="black" stroke-width="0.491459"/>
<circle cx="135.707" cy="65.7287" r="5.11384" fill="#F6D35F" stroke="black" stroke-width="0.491459"/>
<circle cx="146.57" cy="122.036" r="8.68689" fill="#545C2B" stroke="black" stroke-width="0.491459"/>
<circle cx="146.414" cy="121.881" r="5.11384" fill="#F6D35F" stroke="black" stroke-width="0.491459"/>
<circle cx="87.8066" cy="138.489" r="8.68689" fill="#545C2B" stroke="black" stroke-width="0.491459"/>
<circle cx="87.6516" cy="138.334" r="5.11384" fill="#F6D35F" stroke="black" stroke-width="0.491459"/>
<path d="M92.1736 60.9777C89.7934 59.6661 91.1819 53.2664 92.1736 50.2305H100.553C101.949 50.2305 103.832 59.7633 102.921 60.9777C102.01 62.192 95.1488 62.6171 92.1736 60.9777Z" fill="#F5E6D1" stroke="black" stroke-width="0.491459"/>
<path d="M105.529 46.769C105.529 48.3146 104.535 49.7502 102.851 50.8116C101.171 51.8711 98.8351 52.5344 96.2418 52.5344C93.6485 52.5344 91.3123 51.8711 89.6322 50.8116C87.9488 49.7502 86.9547 48.3146 86.9547 46.769C86.9547 45.2233 87.9488 43.7877 89.6322 42.7263C91.3123 41.6669 93.6485 41.0035 96.2418 41.0035C98.8351 41.0035 101.171 41.6669 102.851 42.7263C104.535 43.7877 105.529 45.2233 105.529 46.769Z" fill="#F5E6D1" stroke="black" stroke-width="0.491459"/>
<path d="M117.509 98.587C115.128 97.2755 116.517 90.8758 117.509 87.8398H125.888C127.284 87.8398 129.167 97.3727 128.256 98.587C127.345 99.8014 120.484 100.226 117.509 98.587Z" fill="#F5E6D1" stroke="black" stroke-width="0.491459"/>
<path d="M130.864 84.3783C130.864 85.924 129.87 87.3595 128.186 88.421C126.506 89.4804 124.17 90.1437 121.577 90.1437C118.983 90.1437 116.647 89.4804 114.967 88.421C113.284 87.3595 112.29 85.924 112.29 84.3783C112.29 82.8326 113.284 81.3971 114.967 80.3357C116.647 79.2762 118.983 78.6129 121.577 78.6129C124.17 78.6129 126.506 79.2762 128.186 80.3357C129.87 81.3971 130.864 82.8326 130.864 84.3783Z" fill="#F5E6D1" stroke="black" stroke-width="0.491459"/>
<path d="M96.3533 128.36C93.9731 127.049 95.3615 120.649 96.3533 117.613H104.732C106.129 117.613 108.011 127.146 107.1 128.36C106.19 129.575 99.3285 130 96.3533 128.36Z" fill="#F5E6D1" stroke="black" stroke-width="0.491459"/>
<path d="M109.709 114.152C109.709 115.697 108.714 117.133 107.031 118.194C105.351 119.254 103.015 119.917 100.421 119.917C97.8282 119.917 95.492 119.254 93.8118 118.194C92.1285 117.133 91.1344 115.697 91.1344 114.152C91.1344 112.606 92.1285 111.171 93.8118 110.109C95.492 109.05 97.8282 108.386 100.421 108.386C103.015 108.386 105.351 109.05 107.031 110.109C108.714 111.171 109.709 112.606 109.709 114.152Z" fill="#F5E6D1" stroke="black" stroke-width="0.491459"/>
<path d="M62.6619 103.026C60.2817 101.715 61.6701 95.3152 62.6619 92.2793H71.041C72.4376 92.2793 74.3198 101.812 73.4091 103.026C72.4983 104.241 65.6371 104.666 62.6619 103.026Z" fill="#F5E6D1" stroke="black" stroke-width="0.491459"/>
<path d="M76.0172 88.8178C76.0172 90.3635 75.023 91.799 73.3397 92.8604C71.6596 93.9199 69.3234 94.5832 66.7301 94.5832C64.1368 94.5832 61.8005 93.9199 60.1204 92.8604C58.4371 91.799 57.443 90.3635 57.443 88.8178C57.443 87.2721 58.4371 85.8366 60.1204 84.7751C61.8005 83.7157 64.1368 83.0524 66.7301 83.0524C69.3234 83.0524 71.6596 83.7157 73.3397 84.7751C75.023 85.8366 76.0172 87.2721 76.0172 88.8178Z" fill="#F5E6D1" stroke="black" stroke-width="0.491459"/>
<circle cx="103.164" cy="27.6991" r="9.1565" fill="#FFD5EA" stroke="#9A3159" stroke-width="0.491459"/>
<path d="M109.714 27.7C109.714 31.3143 106.743 34.2499 103.071 34.2499C99.3994 34.2499 96.4283 31.3143 96.4283 27.7C96.4283 24.0857 99.3994 21.15 103.071 21.15C106.743 21.15 109.714 24.0857 109.714 27.7Z" fill="#FFD5EA" stroke="#9A3159" stroke-width="0.491459"/>
<path d="M107.107 27.6989C107.107 29.8717 105.305 31.6423 103.07 31.6423C100.836 31.6423 99.0338 29.8717 99.0338 27.6989C99.0338 25.5261 100.836 23.7555 103.07 23.7555C105.305 23.7555 107.107 25.5261 107.107 27.6989Z" fill="#FFD5EA" stroke="#9A3159" stroke-width="0.491459"/>
<path d="M105.059 27.6997C105.059 28.7569 104.242 29.5951 103.257 29.5951C102.272 29.5951 101.455 28.7569 101.455 27.6997C101.455 26.6425 102.272 25.8043 103.257 25.8043C104.242 25.8043 105.059 26.6425 105.059 27.6997Z" fill="#FFD5EA" stroke="#9A3159" stroke-width="0.491459"/>
<circle cx="161.144" cy="87.7694" r="9.1565" fill="#FFD5EA" stroke="#9A3159" stroke-width="0.491459"/>
<path d="M167.694 87.7683C167.694 91.3826 164.723 94.3183 161.051 94.3183C157.379 94.3183 154.408 91.3826 154.408 87.7683C154.408 84.154 157.379 81.2184 161.051 81.2184C164.723 81.2184 167.694 84.154 167.694 87.7683Z" fill="#FFD5EA" stroke="#9A3159" stroke-width="0.491459"/>
<path d="M165.088 87.7692C165.088 89.942 163.286 91.7126 161.052 91.7126C158.817 91.7126 157.015 89.942 157.015 87.7692C157.015 85.5964 158.817 83.8258 161.052 83.8258C163.286 83.8258 165.088 85.5964 165.088 87.7692Z" fill="#FFD5EA" stroke="#9A3159" stroke-width="0.491459"/>
<path d="M163.04 87.7681C163.04 88.8253 162.223 89.6634 161.237 89.6634C160.252 89.6634 159.435 88.8253 159.435 87.7681C159.435 86.7109 160.252 85.8727 161.237 85.8727C162.223 85.8727 163.04 86.7109 163.04 87.7681Z" fill="#FFD5EA" stroke="#9A3159" stroke-width="0.491459"/>
<circle cx="39.1766" cy="55.6444" r="9.1565" fill="#FFD5EA" stroke="#9A3159" stroke-width="0.491459"/>
<path d="M45.7261 55.6433C45.7261 59.2576 42.7551 62.1933 39.0831 62.1933C35.4111 62.1933 32.4401 59.2576 32.4401 55.6433C32.4401 52.029 35.4111 49.0934 39.0831 49.0934C42.7551 49.0934 45.7261 52.029 45.7261 55.6433Z" fill="#FFD5EA" stroke="#9A3159" stroke-width="0.491459"/>
<path d="M43.1204 55.6442C43.1204 57.817 41.3184 59.5876 39.084 59.5876C36.8496 59.5876 35.0475 57.817 35.0475 55.6442C35.0475 53.4714 36.8496 51.7008 39.084 51.7008C41.3184 51.7008 43.1204 53.4714 43.1204 55.6442Z" fill="#FFD5EA" stroke="#9A3159" stroke-width="0.491459"/>
<path d="M41.072 55.645C41.072 56.7022 40.2549 57.5404 39.2697 57.5404C38.2845 57.5404 37.4674 56.7022 37.4674 55.645C37.4674 54.5878 38.2845 53.7496 39.2697 53.7496C40.2549 53.7496 41.072 54.5878 41.072 55.645Z" fill="#FFD5EA" stroke="#9A3159" stroke-width="0.491459"/>
<circle cx="65.8153" cy="146.271" r="9.1565" fill="#FFD5EA" stroke="#9A3159" stroke-width="0.491459"/>
<path d="M72.3648 146.27C72.3648 149.885 69.3938 152.82 65.7218 152.82C62.0498 152.82 59.0787 149.885 59.0787 146.27C59.0787 142.656 62.0498 139.72 65.7218 139.72C69.3938 139.72 72.3648 142.656 72.3648 146.27Z" fill="#FFD5EA" stroke="#9A3159" stroke-width="0.491459"/>
<path d="M69.7581 146.271C69.7581 148.444 67.9561 150.215 65.7217 150.215C63.4873 150.215 61.6852 148.444 61.6852 146.271C61.6852 144.098 63.4873 142.328 65.7217 142.328C67.9561 142.328 69.7581 144.098 69.7581 146.271Z" fill="#FFD5EA" stroke="#9A3159" stroke-width="0.491459"/>
<path d="M67.7106 146.272C67.7106 147.329 66.8936 148.167 65.9084 148.167C64.9232 148.167 64.1061 147.329 64.1061 146.272C64.1061 145.215 64.9232 144.377 65.9084 144.377C66.8936 144.377 67.7106 145.215 67.7106 146.272Z" fill="#FFD5EA" stroke="#9A3159" stroke-width="0.491459"/>
<circle cx="135.026" cy="138.959" r="9.1565" fill="#FFD5EA" stroke="#9A3159" stroke-width="0.491459"/>
<path d="M141.576 138.958C141.576 142.572 138.605 145.508 134.933 145.508C131.261 145.508 128.29 142.572 128.29 138.958C128.29 135.343 131.261 132.408 134.933 132.408C138.605 132.408 141.576 135.343 141.576 138.958Z" fill="#FFD5EA" stroke="#9A3159" stroke-width="0.491459"/>
<path d="M138.97 138.959C138.97 141.131 137.168 142.902 134.934 142.902C132.699 142.902 130.897 141.131 130.897 138.959C130.897 136.786 132.699 135.015 134.934 135.015C137.168 135.015 138.97 136.786 138.97 138.959Z" fill="#FFD5EA" stroke="#9A3159" stroke-width="0.491459"/>
<path d="M136.922 138.959C136.922 140.017 136.104 140.855 135.119 140.855C134.134 140.855 133.317 140.017 133.317 138.959C133.317 137.902 134.134 137.064 135.119 137.064C136.104 137.064 136.922 137.902 136.922 138.959Z" fill="#FFD5EA" stroke="#9A3159" stroke-width="0.491459"/>
<path d="M88.443 66.4874C89.179 67.7622 89.043 69.4213 88.1571 71.1027C87.2729 72.7808 85.6567 74.4454 83.5104 75.6846C81.3642 76.9237 79.1144 77.4911 77.2191 77.4178C75.32 77.3443 73.8151 76.6325 73.0791 75.3578C72.3432 74.083 72.4792 72.4239 73.3651 70.7425C74.2492 69.0644 75.8655 67.3998 78.0118 66.1606C80.158 64.9215 82.4078 64.3541 84.3031 64.4274C86.2022 64.5009 87.7071 65.2127 88.443 66.4874Z" fill="#564A77" stroke="black" stroke-width="0.491459"/>
<ellipse cx="86.1928" cy="67.1782" rx="1.56097" ry="1.49853" fill="white"/>
<path d="M114.822 68.837C115.558 70.1118 115.422 71.7709 114.536 73.4523C113.652 75.1304 112.036 76.795 109.889 78.0342C107.743 79.2733 105.493 79.8407 103.598 79.7674C101.699 79.6939 100.194 78.9821 99.458 77.7074C98.7221 76.4326 98.8581 74.7735 99.744 73.0921C100.628 71.414 102.244 69.7494 104.391 68.5102C106.537 67.2711 108.787 66.7037 110.682 66.777C112.581 66.8505 114.086 67.5623 114.822 68.837Z" fill="#564A77" stroke="black" stroke-width="0.491459"/>
<ellipse cx="112.572" cy="69.5278" rx="1.56097" ry="1.49853" fill="white"/>
<path d="M97.8454 96.5226C98.5814 97.7973 98.4453 99.4565 97.5594 101.138C96.6753 102.816 95.059 104.481 92.9128 105.72C90.7665 106.959 88.5168 107.526 86.6214 107.453C84.7223 107.379 83.2175 106.668 82.4815 105.393C81.7455 104.118 81.8816 102.459 82.7675 100.778C83.6516 99.0995 85.2679 97.4349 87.4141 96.1958C89.5604 94.9566 91.8101 94.3892 93.7054 94.4626C95.6045 94.5361 97.1094 95.2478 97.8454 96.5226Z" fill="#564A77" stroke="black" stroke-width="0.491459"/>
<ellipse cx="95.5952" cy="97.2134" rx="1.56097" ry="1.49853" fill="white"/>
</svg>
