<svg width="133" height="93" viewBox="0 0 133 93" fill="none" xmlns="http://www.w3.org/2000/svg">
<rect x="0.148797" y="0.148797" width="132.593" height="92.1712" fill="#E4AA11" stroke="black" stroke-width="0.297594"/>
<rect x="8.6029" y="5.96081" width="115.685" height="80.2823" fill="#F6D35F" stroke="black" stroke-width="0.297594"/>
<circle cx="25.0124" cy="18.2063" r="10.4007" fill="#C6181F" stroke="black" stroke-width="0.297594"/>
<circle cx="25.0124" cy="44.9206" r="10.4007" fill="#C6181F" stroke="black" stroke-width="0.297594"/>
<circle cx="25.0124" cy="72.655" r="10.4007" fill="#C6181F" stroke="black" stroke-width="0.297594"/>
<circle cx="66.53" cy="19.0573" r="10.4007" fill="#C6181F" stroke="black" stroke-width="0.297594"/>
<circle cx="66.53" cy="45.7707" r="10.4007" fill="#C6181F" stroke="black" stroke-width="0.297594"/>
<circle cx="66.53" cy="73.5061" r="10.4007" fill="#C6181F" stroke="black" stroke-width="0.297594"/>
<circle cx="108.048" cy="19.0573" r="10.4007" fill="#C6181F" stroke="black" stroke-width="0.297594"/>
<circle cx="108.048" cy="45.7707" r="10.4007" fill="#C6181F" stroke="black" stroke-width="0.297594"/>
<circle cx="108.048" cy="73.5061" r="10.4007" fill="#C6181F" stroke="black" stroke-width="0.297594"/>
<path d="M25.0127 22.43C30.1854 19.1143 41.3474 14.4723 44.6144 22.43C47.2298 28.8006 48.9146 30.5312 49.7387 30.6418C49.9228 30.5712 50.0758 30.5136 50.1954 30.4695C50.0959 30.5964 49.944 30.6693 49.7387 30.6418C48.5959 31.0796 46.2544 32.0167 43.2532 33.331C38.8972 35.2387 32.7717 34.9662 31.955 28.6981C31.3016 23.6836 27.0545 22.43 25.0127 22.43Z" fill="#545C2B" stroke="black" stroke-width="0.297594"/>
<path d="M30.7979 43.8695C35.9705 40.5537 47.1326 35.9117 50.3995 43.8695C53.0149 50.2401 54.6997 51.9706 55.5238 52.0812C55.7079 52.0107 55.861 51.9531 55.9806 51.909C55.881 52.0358 55.7291 52.1088 55.5238 52.0812C54.3811 52.5191 52.0395 53.4561 49.0383 54.7705C44.6824 56.6782 38.5569 56.4056 37.7401 50.1376C37.0867 45.1231 32.8397 43.8695 30.7979 43.8695Z" fill="#545C2B" stroke="black" stroke-width="0.297594"/>
<path d="M29.2666 69.9032C34.4393 66.5874 45.6013 61.9454 48.8683 69.9032C51.4837 76.2738 53.1685 78.0043 53.9926 78.1149C54.1767 78.0444 54.3297 77.9868 54.4493 77.9427C54.3498 78.0695 54.1979 78.1425 53.9926 78.1149C52.8498 78.5528 50.5083 79.4898 47.5071 80.8042C43.1511 82.7119 37.0256 82.4393 36.2089 76.1713C35.5555 71.1568 31.3084 69.9032 29.2666 69.9032Z" fill="#545C2B" stroke="black" stroke-width="0.297594"/>
<path d="M69.7627 17.6659C74.9354 14.3501 86.0974 9.70811 89.3644 17.6659C91.9798 24.0365 93.6646 25.767 94.4887 25.8776C94.6728 25.8071 94.8258 25.7495 94.9454 25.7054C94.8459 25.8322 94.694 25.9052 94.4887 25.8776C93.3459 26.3155 91.0044 27.2525 88.0032 28.5669C83.6472 30.4746 77.5217 30.202 76.705 23.9339C76.0516 18.9195 71.8045 17.6659 69.7627 17.6659Z" fill="#545C2B" stroke="black" stroke-width="0.297594"/>
<path d="M74.0166 44.3802C79.1893 41.0645 90.3513 36.4225 93.6183 44.3802C96.2337 50.7508 97.9185 52.4813 98.7426 52.592C98.9267 52.5214 99.0797 52.4638 99.1993 52.4197C99.0998 52.5465 98.9479 52.6195 98.7426 52.592C97.5998 53.0298 95.2583 53.9669 92.2571 55.2812C87.9011 57.1889 81.7756 56.9164 80.9589 50.6483C80.3055 45.6338 76.0584 44.3802 74.0166 44.3802Z" fill="#545C2B" stroke="black" stroke-width="0.297594"/>
<path d="M75.208 68.8822C80.3807 65.5664 91.5427 60.9244 94.8097 68.8822C97.4251 75.2528 99.1099 76.9833 99.934 77.0939C100.118 77.0234 100.271 76.9658 100.391 76.9217C100.291 77.0485 100.139 77.1215 99.934 77.0939C98.7912 77.5318 96.4497 78.4688 93.4485 79.7832C89.0925 81.6909 82.967 81.4183 82.1503 75.1503C81.4969 70.1358 77.2499 68.8822 75.208 68.8822Z" fill="#545C2B" stroke="black" stroke-width="0.297594"/>
<path d="M14.5004 30.1016C13.467 29.1086 15.0477 26.0382 15.9673 24.6271L20.2355 25.7708C20.9469 25.9614 20.6045 31.0742 19.9749 31.5684C19.3452 32.0627 15.7922 31.3427 14.5004 30.1016Z" fill="#F5E6D1" stroke="black" stroke-width="0.297594"/>
<path d="M23.2241 24.6823C23.0154 25.4611 22.32 26.053 21.3213 26.3628C20.3249 26.6719 19.0481 26.6912 17.73 26.338C16.412 25.9848 15.3158 25.3297 14.6074 24.5638C13.8975 23.7962 13.5912 22.9358 13.7998 22.1571C14.0085 21.3784 14.704 20.7865 15.7026 20.4767C16.699 20.1676 17.9759 20.1483 19.2939 20.5015C20.612 20.8547 21.7081 21.5097 22.4165 22.2757C23.1264 23.0433 23.4328 23.9036 23.2241 24.6823Z" fill="#F5E6D1" stroke="black" stroke-width="0.297594"/>
<path d="M117.625 47.1513C116.248 47.5498 114.379 44.6456 113.617 43.1437L116.742 40.0192C117.262 39.4984 121.519 42.3513 121.632 43.1437C121.745 43.9362 119.345 46.6532 117.625 47.1513Z" fill="#F5E6D1" stroke="black" stroke-width="0.297594"/>
<path d="M117.293 36.8872C117.863 37.4572 118.028 38.3555 117.797 39.3752C117.566 40.3927 116.944 41.5081 115.979 42.473C115.015 43.4379 113.899 44.0596 112.882 44.2901C111.862 44.5212 110.964 44.3563 110.394 43.7862C109.824 43.2161 109.659 42.3179 109.89 41.2981C110.12 40.2806 110.742 39.1653 111.707 38.2004C112.672 37.2355 113.787 36.6138 114.805 36.3832C115.824 36.1522 116.723 36.3171 117.293 36.8872Z" fill="#F5E6D1" stroke="black" stroke-width="0.297594"/>
<path d="M20.9854 65.897C20.5869 64.5204 23.4911 62.6517 24.993 61.8895L28.1175 65.014C28.6383 65.5348 25.7854 69.7914 24.993 69.9046C24.2005 70.0178 21.4835 67.6178 20.9854 65.897Z" fill="#F5E6D1" stroke="black" stroke-width="0.297594"/>
<path d="M31.25 65.5656C30.68 66.1357 29.7817 66.3006 28.762 66.0695C27.7445 65.839 26.6291 65.2173 25.6642 64.2524C24.6993 63.2875 24.0776 62.1721 23.8471 61.1546C23.616 60.1349 23.7809 59.2366 24.351 58.6666C24.9211 58.0965 25.8193 57.9316 26.8391 58.1626C27.8566 58.3932 28.9719 59.0149 29.9368 59.9798C30.9017 60.9446 31.5234 62.06 31.754 63.0775C31.985 64.0973 31.8201 64.9955 31.25 65.5656Z" fill="#F5E6D1" stroke="black" stroke-width="0.297594"/>
<path d="M65.2926 60.7692C63.9011 60.426 63.7349 56.9766 63.8257 55.2947L68.0939 54.1511C68.8053 53.9605 71.0652 58.5594 70.767 59.3023C70.4688 60.0452 67.0318 61.1982 65.2926 60.7692Z" fill="#F5E6D1" stroke="black" stroke-width="0.297594"/>
<path d="M70.1375 51.7141C70.3461 52.4928 70.0398 53.3531 69.3299 54.1207C68.6215 54.8867 67.5253 55.5417 66.2073 55.8949C64.8892 56.2481 63.6124 56.2288 62.616 55.9197C61.6173 55.6099 60.9219 55.018 60.7132 54.2393C60.5045 53.4606 60.8109 52.6002 61.5208 51.8326C62.2292 51.0667 63.3253 50.4116 64.6434 50.0584C65.9614 49.7053 67.2383 49.7245 68.2347 50.0336C69.2333 50.3434 69.9288 50.9353 70.1375 51.7141Z" fill="#F5E6D1" stroke="black" stroke-width="0.297594"/>
<path d="M75.5854 34.5269C74.552 33.5339 76.1327 30.4635 77.0523 29.0524L81.3205 30.1961C82.0318 30.3867 81.6895 35.4995 81.0598 35.9937C80.4301 36.488 76.8771 35.768 75.5854 34.5269Z" fill="#F5E6D1" stroke="black" stroke-width="0.297594"/>
<path d="M84.3091 29.1072C84.1004 29.8859 83.4049 30.4778 82.4063 30.7876C81.4098 31.0967 80.133 31.116 78.815 30.7628C77.4969 30.4096 76.4008 29.7545 75.6924 28.9886C74.9825 28.221 74.6761 27.3607 74.8848 26.5819C75.0935 25.8032 75.7889 25.2113 76.7876 24.9015C77.784 24.5924 79.0608 24.5731 80.3789 24.9263C81.6969 25.2795 82.793 25.9345 83.5014 26.7005C84.2114 27.4681 84.5177 28.3284 84.3091 29.1072Z" fill="#F5E6D1" stroke="black" stroke-width="0.297594"/>
</svg>
