<svg width="105" height="105" viewBox="0 0 105 105" fill="none" xmlns="http://www.w3.org/2000/svg">
<circle cx="52.5" cy="52.5" r="52.362" fill="#E4AA11" stroke="black" stroke-width="0.275953"/>
<circle cx="52.4998" cy="52.501" r="44.6372" fill="#F6D35F" stroke="black" stroke-width="0.275953"/>
<path d="M69.1015 25.8497C69.1015 28.5198 65.8017 30.2822 64.1519 30.8296L60.5713 31.8097C61.7648 31.8538 64.7436 32.2383 66.9163 31.8097C69.6017 31.2799 71.8659 28.0747 72.7084 24.6047C73.5508 21.1347 72.4187 19.042 70.3652 18.7771C68.3116 18.5123 69.1015 22.5121 69.1015 25.8497Z" fill="#C6181F" stroke="black" stroke-width="0.275953"/>
<path d="M30.5634 36.8147C30.5634 39.457 27.227 41.201 25.5588 41.7427L21.9385 42.7126C23.1453 42.7563 26.1571 43.1368 28.3539 42.7126C31.0692 42.1884 33.3585 39.0166 34.2104 35.5827C35.0622 32.1488 33.9176 30.078 31.8412 29.8158C29.7648 29.5537 30.5634 33.5119 30.5634 36.8147Z" fill="#C6181F" stroke="black" stroke-width="0.275953"/>
<path d="M78.4843 54.1353C78.4843 56.8054 75.1845 58.5678 73.5347 59.1152L69.9541 60.0953C71.1476 60.1395 74.1264 60.524 76.2991 60.0953C78.9845 59.5656 81.2487 56.3604 82.0912 52.8903C82.9337 49.4203 81.8016 47.3277 79.748 47.0628C77.6944 46.7979 78.4843 50.7977 78.4843 54.1353Z" fill="#C6181F" stroke="black" stroke-width="0.275953"/>
<path d="M30.5634 72.2091C30.5634 74.8791 27.227 76.6415 25.5588 77.189L21.9385 78.1691C23.1453 78.2132 26.1571 78.5977 28.3539 78.1691C31.0692 77.6393 33.3585 74.4341 34.2104 70.9641C35.0622 67.494 33.9176 65.4014 31.8412 65.1365C29.7648 64.8716 30.5634 68.8715 30.5634 72.2091Z" fill="#C6181F" stroke="black" stroke-width="0.275953"/>
<path d="M66.7558 78.0052C66.7558 80.6753 63.456 82.4377 61.8062 82.9851L58.2256 83.9652C59.4191 84.0094 62.3979 84.3938 64.5706 83.9652C67.256 83.4354 69.5202 80.2303 70.3626 76.7602C71.2051 73.2902 70.073 71.1975 68.0195 70.9327C65.9659 70.6678 66.7558 74.6676 66.7558 78.0052Z" fill="#C6181F" stroke="black" stroke-width="0.275953"/>
<path d="M70.3946 19.1785C70.5415 18.6125 70.6589 17.4061 69.9541 17.1089" stroke="black" stroke-width="0.413929"/>
<path d="M31.871 30.2159C32.0545 29.6498 32.2013 28.4434 31.3203 28.1462" stroke="black" stroke-width="0.413929"/>
<path d="M79.7765 47.4641C79.9233 46.9358 80.0408 45.8098 79.3359 45.5325" stroke="black" stroke-width="0.413929"/>
<path d="M31.871 65.5379C32.0545 64.9719 32.2013 63.7654 31.3203 63.4683" stroke="black" stroke-width="0.413929"/>
<path d="M68.0489 71.4717C68.1958 70.9057 68.3132 69.6993 67.6084 69.4021" stroke="black" stroke-width="0.413929"/>
<ellipse cx="70.4365" cy="19.1785" rx="0.206965" ry="0.275953" fill="black"/>
<ellipse cx="31.9413" cy="30.2174" rx="0.206965" ry="0.275953" fill="black"/>
<ellipse cx="79.8193" cy="47.5332" rx="0.206965" ry="0.344941" fill="black"/>
<ellipse cx="31.9413" cy="65.5396" rx="0.206965" ry="0.275953" fill="black"/>
<ellipse cx="68.0917" cy="71.4718" rx="0.206965" ry="0.275953" fill="black"/>
<circle cx="44.3174" cy="17.928" r="4.87767" fill="#545C2B" stroke="black" stroke-width="0.275953"/>
<circle cx="44.2301" cy="17.8397" r="2.87141" fill="#F6D35F" stroke="black" stroke-width="0.275953"/>
<circle cx="23.4932" cy="55.0296" r="4.87767" fill="#545C2B" stroke="black" stroke-width="0.275953"/>
<circle cx="23.4059" cy="54.9415" r="2.87141" fill="#F6D35F" stroke="black" stroke-width="0.275953"/>
<circle cx="76.2861" cy="36.9944" r="4.87767" fill="#545C2B" stroke="black" stroke-width="0.275953"/>
<circle cx="76.1988" cy="36.9064" r="2.87141" fill="#F6D35F" stroke="black" stroke-width="0.275953"/>
<circle cx="82.2988" cy="68.5217" r="4.87767" fill="#545C2B" stroke="black" stroke-width="0.275953"/>
<circle cx="82.2115" cy="68.4335" r="2.87141" fill="#F6D35F" stroke="black" stroke-width="0.275953"/>
<circle cx="49.3037" cy="77.7608" r="4.87767" fill="#545C2B" stroke="black" stroke-width="0.275953"/>
<circle cx="49.2164" cy="77.6725" r="2.87141" fill="#F6D35F" stroke="black" stroke-width="0.275953"/>
<path d="M51.7555 34.2391C50.419 33.5027 51.1986 29.9093 51.7555 28.2046H56.4604C57.2445 28.2046 58.3014 33.5572 57.79 34.2391C57.2786 34.921 53.4261 35.1596 51.7555 34.2391Z" fill="#F5E6D1" stroke="black" stroke-width="0.275953"/>
<path d="M59.2548 26.2612C59.2548 27.1291 58.6966 27.9352 57.7515 28.5312C56.8081 29.126 55.4963 29.4985 54.0402 29.4985C52.584 29.4985 51.2722 29.126 50.3289 28.5312C49.3837 27.9352 48.8255 27.1291 48.8255 26.2612C48.8255 25.3933 49.3837 24.5873 50.3289 23.9913C51.2722 23.3964 52.584 23.024 54.0402 23.024C55.4963 23.024 56.8081 23.3964 57.7515 23.9913C58.6966 24.5873 59.2548 25.3933 59.2548 26.2612Z" fill="#F5E6D1" stroke="black" stroke-width="0.275953"/>
<path d="M65.9801 55.358C64.6437 54.6216 65.4233 51.0282 65.9801 49.3235H70.685C71.4691 49.3235 72.526 54.6761 72.0146 55.358C71.5032 56.0399 67.6507 56.2785 65.9801 55.358Z" fill="#F5E6D1" stroke="black" stroke-width="0.275953"/>
<path d="M73.4794 47.3801C73.4794 48.248 72.9212 49.0541 71.9761 49.6501C71.0327 50.2449 69.7209 50.6174 68.2648 50.6174C66.8086 50.6174 65.4968 50.2449 64.5535 49.6501C63.6083 49.0541 63.0501 48.248 63.0501 47.3801C63.0501 46.5122 63.6083 45.7062 64.5535 45.1102C65.4968 44.5153 66.8086 44.1429 68.2648 44.1429C69.7209 44.1429 71.0327 44.5153 71.9761 45.1102C72.9212 45.7062 73.4794 46.5122 73.4794 47.3801Z" fill="#F5E6D1" stroke="black" stroke-width="0.275953"/>
<path d="M54.1012 72.0755C52.7648 71.3391 53.5444 67.7457 54.1012 66.041H58.8061C59.5902 66.041 60.6471 71.3937 60.1357 72.0755C59.6243 72.7574 55.7718 72.9961 54.1012 72.0755Z" fill="#F5E6D1" stroke="black" stroke-width="0.275953"/>
<path d="M61.6005 64.0977C61.6005 64.9656 61.0423 65.7716 60.0972 66.3676C59.1538 66.9625 57.842 67.3349 56.3859 67.3349C54.9297 67.3349 53.6179 66.9625 52.6746 66.3676C51.7294 65.7716 51.1712 64.9656 51.1712 64.0977C51.1712 63.2298 51.7294 62.4237 52.6746 61.8277C53.6179 61.2328 54.9297 60.8604 56.3859 60.8604C57.842 60.8604 59.1538 61.2328 60.0972 61.8277C61.0423 62.4237 61.6005 63.2298 61.6005 64.0977Z" fill="#F5E6D1" stroke="black" stroke-width="0.275953"/>
<path d="M35.1842 57.8482C33.8478 57.1118 34.6274 53.5184 35.1842 51.8137H39.8891C40.6732 51.8137 41.7301 57.1664 41.2187 57.8482C40.7073 58.5301 36.8548 58.7688 35.1842 57.8482Z" fill="#F5E6D1" stroke="black" stroke-width="0.275953"/>
<path d="M42.6835 49.8704C42.6835 50.7383 42.1253 51.5443 41.1802 52.1403C40.2368 52.7352 38.925 53.1076 37.4689 53.1076C36.0127 53.1076 34.7009 52.7352 33.7576 52.1403C32.8124 51.5443 32.2542 50.7383 32.2542 49.8704C32.2542 49.0025 32.8124 48.1964 33.7576 47.6004C34.7009 47.0055 36.0127 46.6331 37.4689 46.6331C38.925 46.6331 40.2368 47.0055 41.1802 47.6004C42.1253 48.1964 42.6835 49.0025 42.6835 49.8704Z" fill="#F5E6D1" stroke="black" stroke-width="0.275953"/>
<circle cx="57.9258" cy="15.554" r="5.14135" fill="#FFD5EA" stroke="#9A3159" stroke-width="0.275953"/>
<path d="M61.6039 15.5528C61.6039 17.5822 59.9357 19.2306 57.8739 19.2306C55.8121 19.2306 54.1438 17.5822 54.1438 15.5528C54.1438 13.5234 55.8121 11.875 57.8739 11.875C59.9357 11.875 61.6039 13.5234 61.6039 15.5528Z" fill="#FFD5EA" stroke="#9A3159" stroke-width="0.275953"/>
<path d="M60.1397 15.5533C60.1397 16.7734 59.1278 17.7675 57.8732 17.7675C56.6186 17.7675 55.6067 16.7734 55.6067 15.5533C55.6067 14.3333 56.6186 13.3391 57.8732 13.3391C59.1278 13.3391 60.1397 14.3333 60.1397 15.5533Z" fill="#FFD5EA" stroke="#9A3159" stroke-width="0.275953"/>
<path d="M58.9901 15.555C58.9901 16.1486 58.5313 16.6193 57.9781 16.6193C57.4249 16.6193 56.9661 16.1486 56.9661 15.555C56.9661 14.9614 57.4249 14.4908 57.9781 14.4908C58.5313 14.4908 58.9901 14.9614 58.9901 15.555Z" fill="#FFD5EA" stroke="#9A3159" stroke-width="0.275953"/>
<circle cx="90.4815" cy="49.2842" r="5.14135" fill="#FFD5EA" stroke="#9A3159" stroke-width="0.275953"/>
<path d="M94.1596 49.2847C94.1596 51.3142 92.4914 52.9625 90.4295 52.9625C88.3677 52.9625 86.6995 51.3142 86.6995 49.2847C86.6995 47.2553 88.3677 45.607 90.4295 45.607C92.4914 45.607 94.1596 47.2553 94.1596 49.2847Z" fill="#FFD5EA" stroke="#9A3159" stroke-width="0.275953"/>
<path d="M92.6953 49.2836C92.6953 50.5036 91.6835 51.4978 90.4289 51.4978C89.1742 51.4978 88.1624 50.5036 88.1624 49.2836C88.1624 48.0635 89.1742 47.0694 90.4289 47.0694C91.6835 47.0694 92.6953 48.0635 92.6953 49.2836Z" fill="#FFD5EA" stroke="#9A3159" stroke-width="0.275953"/>
<path d="M91.5457 49.2852C91.5457 49.8788 91.0869 50.3495 90.5337 50.3495C89.9806 50.3495 89.5218 49.8788 89.5218 49.2852C89.5218 48.6916 89.9806 48.221 90.5337 48.221C91.0869 48.221 91.5457 48.6916 91.5457 49.2852Z" fill="#FFD5EA" stroke="#9A3159" stroke-width="0.275953"/>
<circle cx="21.9971" cy="31.243" r="5.14135" fill="#FFD5EA" stroke="#9A3159" stroke-width="0.275953"/>
<path d="M25.6752 31.2435C25.6752 33.2729 24.007 34.9213 21.9452 34.9213C19.8833 34.9213 18.2151 33.2729 18.2151 31.2435C18.2151 29.2141 19.8833 27.5657 21.9452 27.5657C24.007 27.5657 25.6752 29.2141 25.6752 31.2435Z" fill="#FFD5EA" stroke="#9A3159" stroke-width="0.275953"/>
<path d="M24.211 31.2423C24.211 32.4623 23.1991 33.4565 21.9445 33.4565C20.6899 33.4565 19.678 32.4623 19.678 31.2423C19.678 30.0223 20.6899 29.0281 21.9445 29.0281C23.1991 29.0281 24.211 30.0223 24.211 31.2423Z" fill="#FFD5EA" stroke="#9A3159" stroke-width="0.275953"/>
<path d="M23.0613 31.244C23.0613 31.8376 22.6026 32.3082 22.0494 32.3082C21.4962 32.3082 21.0374 31.8376 21.0374 31.244C21.0374 30.6504 21.4962 30.1797 22.0494 30.1797C22.6026 30.1797 23.0613 30.6504 23.0613 31.244Z" fill="#FFD5EA" stroke="#9A3159" stroke-width="0.275953"/>
<circle cx="36.9551" cy="82.1306" r="5.14135" fill="#FFD5EA" stroke="#9A3159" stroke-width="0.275953"/>
<path d="M40.6332 82.1312C40.6332 84.1606 38.965 85.809 36.9032 85.809C34.8414 85.809 33.1731 84.1606 33.1731 82.1312C33.1731 80.1018 34.8414 78.4534 36.9032 78.4534C38.965 78.4534 40.6332 80.1018 40.6332 82.1312Z" fill="#FFD5EA" stroke="#9A3159" stroke-width="0.275953"/>
<path d="M39.169 82.13C39.169 83.35 38.1571 84.3442 36.9025 84.3442C35.6479 84.3442 34.636 83.35 34.636 82.13C34.636 80.91 35.6479 79.9158 36.9025 79.9158C38.1571 79.9158 39.169 80.91 39.169 82.13Z" fill="#FFD5EA" stroke="#9A3159" stroke-width="0.275953"/>
<path d="M38.0194 82.1317C38.0194 82.7253 37.5606 83.1959 37.0074 83.1959C36.4542 83.1959 35.9954 82.7253 35.9954 82.1317C35.9954 81.5381 36.4542 81.0674 37.0074 81.0674C37.5606 81.0674 38.0194 81.5381 38.0194 82.1317Z" fill="#FFD5EA" stroke="#9A3159" stroke-width="0.275953"/>
<circle cx="75.8174" cy="78.0244" r="5.14135" fill="#FFD5EA" stroke="#9A3159" stroke-width="0.275953"/>
<path d="M79.4955 78.025C79.4955 80.0544 77.8273 81.7028 75.7655 81.7028C73.7037 81.7028 72.0354 80.0544 72.0354 78.025C72.0354 75.9956 73.7037 74.3472 75.7655 74.3472C77.8273 74.3472 79.4955 75.9956 79.4955 78.025Z" fill="#FFD5EA" stroke="#9A3159" stroke-width="0.275953"/>
<path d="M78.0313 78.0238C78.0313 79.2438 77.0194 80.238 75.7648 80.238C74.5102 80.238 73.4983 79.2438 73.4983 78.0238C73.4983 76.8038 74.5102 75.8096 75.7648 75.8096C77.0194 75.8096 78.0313 76.8038 78.0313 78.0238Z" fill="#FFD5EA" stroke="#9A3159" stroke-width="0.275953"/>
<path d="M76.8817 78.0255C76.8817 78.6191 76.4229 79.0897 75.8697 79.0897C75.3165 79.0897 74.8577 78.6191 74.8577 78.0255C74.8577 77.4319 75.3165 76.9612 75.8697 76.9612C76.4229 76.9612 76.8817 77.4319 76.8817 78.0255Z" fill="#FFD5EA" stroke="#9A3159" stroke-width="0.275953"/>
<path d="M49.6608 37.3313C50.074 38.0471 49.9976 38.9787 49.5002 39.9228C49.0038 40.865 48.0962 41.7997 46.8911 42.4955C45.686 43.1913 44.4228 43.5099 43.3586 43.4687C42.2922 43.4274 41.4472 43.0277 41.034 42.312C40.6207 41.5962 40.6971 40.6646 41.1945 39.7205C41.691 38.7783 42.5985 37.8436 43.8036 37.1478C45.0087 36.452 46.272 36.1334 47.3362 36.1746C48.4025 36.2159 49.2475 36.6155 49.6608 37.3313Z" fill="#564A77" stroke="black" stroke-width="0.275953"/>
<ellipse cx="48.398" cy="37.7176" rx="0.876482" ry="0.841423" fill="white"/>
<path d="M64.4723 38.6536C64.8855 39.3693 64.8091 40.3009 64.3117 41.2451C63.8153 42.1873 62.9077 43.122 61.7026 43.8177C60.4975 44.5135 59.2343 44.8321 58.1701 44.7909C57.1037 44.7497 56.2587 44.35 55.8455 43.6342C55.4323 42.9185 55.5086 41.9869 56.0061 41.0428C56.5025 40.1005 57.41 39.1658 58.6152 38.4701C59.8203 37.7743 61.0835 37.4557 62.1477 37.4969C63.2141 37.5382 64.059 37.9378 64.4723 38.6536Z" fill="#564A77" stroke="black" stroke-width="0.275953"/>
<ellipse cx="63.2095" cy="39.0399" rx="0.876482" ry="0.841423" fill="white"/>
<path d="M54.9401 54.1965C55.3533 54.9123 55.2769 55.8439 54.7795 56.788C54.2831 57.7303 53.3755 58.6649 52.1704 59.3607C50.9653 60.0565 49.7021 60.3751 48.6379 60.3339C47.5715 60.2926 46.7265 59.893 46.3133 59.1772C45.9 58.4615 45.9764 57.5298 46.4738 56.5857C46.9703 55.6435 47.8778 54.7088 49.0829 54.013C50.288 53.3173 51.5513 52.9987 52.6155 53.0399C53.6818 53.0811 54.5268 53.4808 54.9401 54.1965Z" fill="#564A77" stroke="black" stroke-width="0.275953"/>
<ellipse cx="53.6773" cy="54.5829" rx="0.876482" ry="0.841423" fill="white"/>
</svg>
