<svg width="144" height="144" viewBox="0 0 144 144" fill="none" xmlns="http://www.w3.org/2000/svg">
<path d="M9.90068 107.853L72 0.293874L134.099 107.853H9.90068Z" fill="#E4AA11" stroke="black" stroke-width="0.293878"/>
<path d="M21.3104 101.267L72.0004 13.4692L122.69 101.267H21.3104Z" fill="#F6D35F" stroke="black" stroke-width="0.293878"/>
<path d="M64.4082 26.7209C67.5614 24.6886 74.3657 21.8435 76.3572 26.7209C77.9515 30.6254 78.9785 31.686 79.4809 31.7538C79.5931 31.7106 79.6864 31.6753 79.7593 31.6483C79.6986 31.726 79.606 31.7707 79.4809 31.7538C78.7843 32.0222 77.3569 32.5965 75.5274 33.4021C72.8721 34.5713 69.138 34.4043 68.6401 30.5626C68.2418 27.4892 65.6529 26.7209 64.4082 26.7209Z" fill="#545C2B" stroke="black" stroke-width="0.293878"/>
<path d="M102.452 92.6313C105.605 90.599 112.41 87.7539 114.401 92.6313C115.995 96.5358 117.022 97.5964 117.525 97.6642C117.637 97.621 117.73 97.5857 117.803 97.5587C117.743 97.6364 117.65 97.6811 117.525 97.6642C116.828 97.9326 115.401 98.5069 113.571 99.3125C110.916 100.482 107.182 100.315 106.684 96.473C106.286 93.3996 103.697 92.6313 102.452 92.6313Z" fill="#545C2B" stroke="black" stroke-width="0.293878"/>
<path d="M95.4318 70.0771C99.1787 69.8937 106.494 70.832 105.78 76.0516C105.208 80.2302 105.567 81.6622 105.969 81.9721C106.087 81.9908 106.186 82.0069 106.263 82.0199C106.171 82.0569 106.069 82.0493 105.969 81.9721C105.231 81.8562 103.708 81.6399 101.721 81.4228C98.8365 81.1077 95.6862 79.096 97.1759 75.5201C98.3677 72.6593 96.5097 70.6994 95.4318 70.0771Z" fill="#545C2B" stroke="black" stroke-width="0.293878"/>
<path d="M28.8662 92.6313C32.0194 90.599 38.8237 87.7539 40.8152 92.6313C42.4095 96.5358 43.4365 97.5964 43.9389 97.6642C44.0511 97.621 44.1444 97.5857 44.2173 97.5587C44.1566 97.6364 44.064 97.6811 43.9389 97.6642C43.2423 97.9326 41.8149 98.5069 39.9854 99.3125C37.3301 100.482 33.596 100.315 33.0981 96.473C32.6998 93.3996 30.1109 92.6313 28.8662 92.6313Z" fill="#545C2B" stroke="black" stroke-width="0.293878"/>
<path d="M36.7053 81.3848C36.5219 77.638 37.4601 70.3228 42.6798 71.0367C46.8583 71.6083 48.2904 71.2492 48.6003 70.848C48.619 70.7292 48.6351 70.6308 48.6481 70.5541C48.6851 70.6455 48.6775 70.7481 48.6003 70.848C48.4844 71.5855 48.2681 73.1088 48.051 75.096C47.7359 77.9802 45.7242 81.1304 42.1483 79.6407C39.2875 78.449 37.3276 80.3069 36.7053 81.3848Z" fill="#545C2B" stroke="black" stroke-width="0.293878"/>
<circle cx="71.9167" cy="42.2153" r="6.36059" fill="#C6181F" stroke="black" stroke-width="0.293878"/>
<circle cx="56.7321" cy="57.2341" r="6.36059" fill="#C6181F" stroke="black" stroke-width="0.293878"/>
<circle cx="56.5652" cy="72.917" r="6.36059" fill="#C6181F" stroke="black" stroke-width="0.293878"/>
<circle cx="58.0671" cy="89.9372" r="6.36059" fill="#C6181F" stroke="black" stroke-width="0.293878"/>
<circle cx="72.0837" cy="57.2341" r="6.36059" fill="#C6181F" stroke="black" stroke-width="0.293878"/>
<circle cx="71.9167" cy="72.917" r="6.36059" fill="#C6181F" stroke="black" stroke-width="0.293878"/>
<circle cx="73.4187" cy="89.9372" r="6.36059" fill="#C6181F" stroke="black" stroke-width="0.293878"/>
<circle cx="87.4343" cy="57.0654" r="6.36059" fill="#C6181F" stroke="black" stroke-width="0.293878"/>
<circle cx="87.2673" cy="72.75" r="6.36059" fill="#C6181F" stroke="black" stroke-width="0.293878"/>
<circle cx="88.7692" cy="89.7719" r="6.36059" fill="#C6181F" stroke="black" stroke-width="0.293878"/>
<circle cx="81.2609" cy="42.7152" r="5.86001" fill="#FFD5EA" stroke="#9A3159" stroke-width="0.293878"/>
<path d="M85.4551 42.7137C85.4551 45.0285 83.5524 46.9085 81.2009 46.9085C78.8495 46.9085 76.9467 45.0285 76.9467 42.7137C76.9467 40.3989 78.8495 38.519 81.2009 38.519C83.5524 38.519 85.4551 40.3989 85.4551 42.7137Z" fill="#FFD5EA" stroke="#9A3159" stroke-width="0.293878"/>
<path d="M83.7906 42.7142C83.7906 44.1081 82.6345 45.2436 81.2017 45.2436C79.7688 45.2436 78.6128 44.1081 78.6128 42.7142C78.6128 41.3203 79.7688 40.1848 81.2017 40.1848C82.6345 40.1848 83.7906 41.3203 83.7906 42.7142Z" fill="#FFD5EA" stroke="#9A3159" stroke-width="0.293878"/>
<path d="M82.4817 42.7141C82.4817 43.3947 81.9556 43.9351 81.3202 43.9351C80.6848 43.9351 80.1587 43.3947 80.1587 42.7141C80.1587 42.0336 80.6848 41.4931 81.3202 41.4931C81.9556 41.4931 82.4817 42.0336 82.4817 42.7141Z" fill="#FFD5EA" stroke="#9A3159" stroke-width="0.293878"/>
<circle cx="62.5724" cy="51.3898" r="5.86001" fill="#FFD5EA" stroke="#9A3159" stroke-width="0.293878"/>
<path d="M66.7676 51.3885C66.7676 53.7033 64.8649 55.5833 62.5134 55.5833C60.162 55.5833 58.2592 53.7033 58.2592 51.3885C58.2592 49.0737 60.162 47.1938 62.5134 47.1938C64.8649 47.1938 66.7676 49.0737 66.7676 51.3885Z" fill="#FFD5EA" stroke="#9A3159" stroke-width="0.293878"/>
<path d="M65.1021 51.3888C65.1021 52.7827 63.9461 53.9182 62.5132 53.9182C61.0803 53.9182 59.9243 52.7827 59.9243 51.3888C59.9243 49.9948 61.0803 48.8593 62.5132 48.8593C63.9461 48.8593 65.1021 49.9948 65.1021 51.3888Z" fill="#FFD5EA" stroke="#9A3159" stroke-width="0.293878"/>
<path d="M63.7932 51.3887C63.7932 52.0692 63.2671 52.6097 62.6317 52.6097C61.9963 52.6097 61.4702 52.0692 61.4702 51.3887C61.4702 50.7081 61.9963 50.1677 62.6317 50.1677C63.2671 50.1677 63.7932 50.7081 63.7932 51.3887Z" fill="#FFD5EA" stroke="#9A3159" stroke-width="0.293878"/>
<circle cx="85.5987" cy="65.9081" r="5.86001" fill="#FFD5EA" stroke="#9A3159" stroke-width="0.293878"/>
<path d="M89.793 65.9066C89.793 68.2214 87.8902 70.1013 85.5388 70.1013C83.1874 70.1013 81.2846 68.2214 81.2846 65.9066C81.2846 63.5918 83.1874 61.7119 85.5388 61.7119C87.8902 61.7119 89.793 63.5918 89.793 65.9066Z" fill="#FFD5EA" stroke="#9A3159" stroke-width="0.293878"/>
<path d="M88.1285 65.909C88.1285 67.303 86.9724 68.4385 85.5396 68.4385C84.1067 68.4385 82.9506 67.303 82.9506 65.909C82.9506 64.5151 84.1067 63.3796 85.5396 63.3796C86.9724 63.3796 88.1285 64.5151 88.1285 65.909Z" fill="#FFD5EA" stroke="#9A3159" stroke-width="0.293878"/>
<path d="M86.8196 65.9087C86.8196 66.5892 86.2934 67.1297 85.6581 67.1297C85.0227 67.1297 84.4965 66.5892 84.4965 65.9087C84.4965 65.2281 85.0227 64.6877 85.6581 64.6877C86.2934 64.6877 86.8196 65.2281 86.8196 65.9087Z" fill="#FFD5EA" stroke="#9A3159" stroke-width="0.293878"/>
<circle cx="63.2404" cy="77.4239" r="5.86001" fill="#FFD5EA" stroke="#9A3159" stroke-width="0.293878"/>
<path d="M67.4346 77.4225C67.4346 79.7373 65.5318 81.6172 63.1804 81.6172C60.829 81.6172 58.9262 79.7373 58.9262 77.4225C58.9262 75.1077 60.829 73.2277 63.1804 73.2277C65.5318 73.2277 67.4346 75.1077 67.4346 77.4225Z" fill="#FFD5EA" stroke="#9A3159" stroke-width="0.293878"/>
<path d="M65.7701 77.4229C65.7701 78.8169 64.614 79.9524 63.1812 79.9524C61.7483 79.9524 60.5923 78.8169 60.5923 77.4229C60.5923 76.029 61.7483 74.8935 63.1812 74.8935C64.614 74.8935 65.7701 76.029 65.7701 77.4229Z" fill="#FFD5EA" stroke="#9A3159" stroke-width="0.293878"/>
<path d="M64.4612 77.4229C64.4612 78.1034 63.9351 78.6438 63.2997 78.6438C62.6643 78.6438 62.1381 78.1034 62.1381 77.4229C62.1381 76.7423 62.6643 76.2019 63.2997 76.2019C63.9351 76.2019 64.4612 76.7423 64.4612 77.4229Z" fill="#FFD5EA" stroke="#9A3159" stroke-width="0.293878"/>
<circle cx="89.9376" cy="87.9354" r="5.86001" fill="#FFD5EA" stroke="#9A3159" stroke-width="0.293878"/>
<path d="M94.1319 87.9339C94.1319 90.2487 92.2291 92.1287 89.8777 92.1287C87.5263 92.1287 85.6235 90.2487 85.6235 87.9339C85.6235 85.6191 87.5263 83.7392 89.8777 83.7392C92.2291 83.7392 94.1319 85.6191 94.1319 87.9339Z" fill="#FFD5EA" stroke="#9A3159" stroke-width="0.293878"/>
<path d="M92.4673 87.9344C92.4673 89.3284 91.3113 90.4638 89.8784 90.4638C88.4455 90.4638 87.2895 89.3284 87.2895 87.9344C87.2895 86.5405 88.4455 85.405 89.8784 85.405C91.3113 85.405 92.4673 86.5405 92.4673 87.9344Z" fill="#FFD5EA" stroke="#9A3159" stroke-width="0.293878"/>
<path d="M91.1584 87.9343C91.1584 88.6149 90.6323 89.1553 89.9969 89.1553C89.3615 89.1553 88.8354 88.6149 88.8354 87.9343C88.8354 87.2538 89.3615 86.7133 89.9969 86.7133C90.6323 86.7133 91.1584 87.2538 91.1584 87.9343Z" fill="#FFD5EA" stroke="#9A3159" stroke-width="0.293878"/>
<path d="M60.3237 42.4083C59.5953 41.6454 60.7507 39.0569 61.4194 37.858L64.4545 38.5889C64.9603 38.7107 64.6703 42.911 64.2166 43.3457C63.7629 43.7804 61.2343 43.3619 60.3237 42.4083Z" fill="#F5E6D1" stroke="black" stroke-width="0.293878"/>
<path d="M66.5555 37.5439C66.3998 38.1906 65.9007 38.7023 65.1966 38.999C64.4926 39.2957 63.5932 39.3721 62.667 39.1491C61.7408 38.9261 60.9747 38.4487 60.4829 37.864C59.9911 37.2793 59.7796 36.5965 59.9353 35.9498C60.091 35.3032 60.5901 34.7915 61.2942 34.4947C61.9982 34.198 62.8977 34.1216 63.8238 34.3447C64.75 34.5677 65.5162 35.0451 66.0079 35.6297C66.4997 36.2144 66.7112 36.8972 66.5555 37.5439Z" fill="#F5E6D1" stroke="black" stroke-width="0.293878"/>
<path d="M101.253 82.2914C100.2 82.2401 99.2544 79.5678 98.9133 78.2381L101.617 76.6772C102.067 76.417 104.751 79.6617 104.721 80.2893C104.692 80.917 102.57 82.3554 101.253 82.2914Z" fill="#F5E6D1" stroke="black" stroke-width="0.293878"/>
<path d="M102.421 74.4722C102.754 75.0483 102.744 75.763 102.438 76.4631C102.133 77.1632 101.533 77.8381 100.708 78.3145C99.8831 78.7908 98.9988 78.9724 98.2396 78.8874C97.4803 78.8023 96.8566 78.453 96.5241 77.877C96.1915 77.3009 96.2008 76.5862 96.5068 75.8861C96.8127 75.186 97.4122 74.5111 98.2372 74.0348C99.0622 73.5585 99.9464 73.3768 100.706 73.4619C101.465 73.5469 102.089 73.8962 102.421 74.4722Z" fill="#F5E6D1" stroke="black" stroke-width="0.293878"/>
<path d="M42.7108 91.072C42.2284 90.134 44.0699 87.979 45.051 87.0187L47.7546 88.5797C48.2052 88.8398 46.7368 92.7858 46.1785 93.0741C45.6202 93.3624 43.3138 92.2446 42.7108 91.072Z" fill="#F5E6D1" stroke="black" stroke-width="0.293878"/>
<path d="M50.0661 88.1752C49.7335 88.7513 49.1098 89.1005 48.3506 89.1856C47.5913 89.2707 46.7071 89.089 45.8821 88.6127C45.0571 88.1364 44.4576 87.4614 44.1517 86.7614C43.8457 86.0613 43.8364 85.3465 44.1689 84.7705C44.5015 84.1945 45.1252 83.8452 45.8845 83.7601C46.6437 83.675 47.5279 83.8567 48.3529 84.333C49.178 84.8093 49.7774 85.4843 50.0833 86.1843C50.3893 86.8844 50.3987 87.5992 50.0661 88.1752Z" fill="#F5E6D1" stroke="black" stroke-width="0.293878"/>
</svg>
